<?xml version="1.0" standalone="no"?>
<!DOCTYPE svg PUBLIC "-//W3C//DTD SVG 20010904//EN"
 "http://www.w3.org/TR/2001/REC-SVG-20010904/DTD/svg10.dtd">
<svg version="1.0" xmlns="http://www.w3.org/2000/svg"
 width="1280.000000pt" height="932.000000pt" viewBox="0 0 1280.000000 932.000000"
 preserveAspectRatio="xMidYMid meet">
<metadata>
Created by potrace 1.15, written by Peter Selinger 2001-2017
</metadata>
<g transform="translate(0.000000,932.000000) scale(0.100000,-0.100000)"
fill="#E2C2B9" stroke="none">
<path d="M2415 9301 c-44 -20 -64 -40 -88 -86 -14 -28 -18 -29 -79 -30 -53 0
-72 -5 -106 -28 -51 -33 -82 -91 -82 -152 0 -51 28 -116 61 -138 19 -14 20
-17 5 -45 -9 -17 -16 -37 -16 -44 -1 -39 -15 -41 -106 -15 -410 118 -578 149
-799 148 -272 -1 -489 -71 -630 -202 -155 -146 -225 -383 -196 -672 19 -202
45 -312 171 -722 64 -209 149 -550 188 -750 35 -177 31 -242 -21 -365 l-32
-75 -116 -17 c-280 -41 -427 -152 -484 -369 -15 -55 -20 -231 -9 -288 l7 -31
93 0 c338 0 516 162 554 504 9 74 18 106 45 157 l33 63 6 -35 c33 -198 61
-661 53 -879 -8 -225 -29 -371 -113 -809 -33 -173 -38 -187 -71 -228 l-36 -44
-19 30 c-59 93 -196 103 -279 20 -37 -37 -39 -38 -66 -24 -74 39 -157 25 -214
-35 -64 -67 -72 -166 -18 -234 l20 -26 -30 -38 c-72 -88 -43 -220 60 -272 39
-20 107 -25 143 -11 16 6 26 -1 51 -33 17 -23 46 -49 65 -58 46 -24 121 -23
169 1 43 22 55 35 79 84 17 35 17 32 18 -151 1 -134 8 -227 23 -326 18 -119
20 -151 11 -225 -13 -101 -43 -237 -100 -451 -70 -265 -109 -440 -130 -581
-15 -104 -28 -154 -53 -210 -19 -41 -42 -96 -52 -124 -14 -36 -40 -71 -95
-125 -180 -178 -238 -354 -180 -544 23 -75 98 -191 164 -255 l45 -44 58 43
c32 24 81 68 110 97 47 48 56 53 95 53 24 0 48 -4 55 -8 15 -9 43 -123 43
-173 0 -81 35 -122 88 -105 38 12 46 57 30 164 -9 53 -14 99 -12 101 2 2 68
-2 146 -10 93 -9 271 -14 508 -14 377 0 410 -4 410 -41 0 -29 80 -187 122
-242 53 -69 133 -125 215 -153 55 -18 80 -20 176 -16 119 4 254 38 264 65 10
25 -36 184 -77 268 -28 56 -58 98 -94 132 -81 77 -144 103 -299 127 l-38 6 83
45 c375 203 557 264 747 251 98 -7 136 -19 351 -112 692 -300 793 -330 1100
-330 203 0 272 12 438 76 364 141 451 150 645 67 46 -20 47 -22 47 -64 0 -189
63 -367 165 -463 99 -94 209 -131 393 -131 l112 0 0 128 c0 82 -5 149 -15 187
-54 207 -204 327 -460 365 -77 12 -185 55 -185 74 0 12 358 2 657 -19 128 -8
331 -19 450 -23 l218 -8 75 -37 c41 -20 90 -49 107 -64 l33 -28 -11 -75 c-6
-41 -8 -111 -5 -155 22 -297 192 -458 517 -491 l66 -6 12 43 c18 65 26 265 13
326 -38 173 -164 293 -384 364 -78 24 -113 41 -143 69 -22 20 -51 44 -64 53
l-23 16 33 5 c312 45 440 72 909 190 544 137 756 171 1015 163 233 -8 353 -42
765 -221 372 -162 467 -197 650 -237 138 -31 353 -33 477 -5 79 18 86 18 153
2 39 -10 93 -27 119 -38 45 -18 50 -24 75 -86 67 -163 174 -289 295 -345 53
-25 80 -31 161 -35 84 -4 110 -1 189 22 95 27 171 60 171 75 0 20 -45 141 -77
207 -114 234 -322 317 -621 249 -72 -17 -74 -17 -133 5 -33 13 -57 26 -52 30
4 4 69 29 143 55 406 142 650 273 814 438 149 149 224 309 246 522 14 131 9
223 -30 535 -16 129 -32 287 -36 350 -6 105 -4 123 20 208 15 51 41 124 57
162 27 60 36 71 72 85 82 33 184 100 248 164 152 152 178 338 80 572 -47 111
-39 106 -113 79 -34 -12 -94 -39 -133 -59 -38 -20 -72 -37 -75 -38 -3 -2 -5
126 -6 285 0 392 -30 593 -140 934 -174 540 -244 898 -261 1334 l-6 161 28 51
c16 29 31 52 34 52 3 0 14 -13 23 -29 23 -41 86 -71 148 -71 56 0 81 10 121
47 l26 24 38 -25 c83 -57 211 -21 255 70 23 46 25 115 7 159 -12 27 -11 31 20
59 45 39 63 76 63 130 0 110 -75 186 -184 186 -42 0 -44 1 -50 36 -8 41 -64
106 -106 124 -45 19 -132 8 -175 -21 -39 -26 -75 -90 -75 -132 0 -24 -4 -27
-37 -27 -21 0 -48 -3 -60 -6 l-21 -6 24 114 c45 207 105 398 189 593 80 187
96 246 102 381 10 218 -44 366 -187 517 -69 74 -89 88 -187 135 -129 63 -253
92 -389 92 -120 0 -227 -21 -404 -80 -220 -73 -304 -85 -565 -84 -243 0 -311
8 -750 80 -556 92 -780 113 -1002 95 -280 -23 -418 -65 -718 -217 -222 -112
-318 -152 -477 -198 -367 -106 -825 -127 -1423 -65 -110 11 -213 23 -228 27
-23 6 -33 21 -62 86 -51 117 -93 182 -162 246 -128 120 -276 153 -463 104 -54
-14 -180 -63 -180 -70 0 -16 58 -180 77 -218 l25 -49 -54 6 c-269 31 -630 14
-1140 -53 -326 -43 -638 -80 -759 -90 -187 -16 -474 -15 -533 2 -47 13 -48 15
-50 53 -2 22 -6 50 -10 63 -5 15 -3 22 5 22 27 0 89 54 109 94 52 108 -9 230
-128 258 -51 13 -52 13 -52 51 0 66 -42 122 -112 152 -49 20 -94 19 -143 -4z
m6805 -326 c138 -8 294 -29 655 -89 149 -25 308 -50 355 -56 182 -22 184 -25
45 -65 -336 -98 -468 -325 -390 -669 8 -32 16 -60 18 -62 9 -9 203 25 261 46
229 79 337 267 323 562 l-5 107 50 21 c39 16 83 23 211 30 89 5 200 16 247 24
46 8 86 14 88 12 1 -2 -11 -26 -28 -52 -28 -45 -90 -215 -90 -248 0 -8 23 -23
53 -35 124 -46 171 -55 277 -56 115 0 170 14 246 65 l42 28 43 -45 c89 -90
253 -143 445 -143 l83 0 13 -42 c7 -26 12 -90 11 -158 -2 -110 -3 -119 -42
-215 -152 -370 -227 -749 -238 -1210 -8 -337 20 -664 81 -953 21 -97 21 -96
-18 -70 -23 15 -45 46 -72 102 -159 328 -421 426 -742 276 -72 -34 -72 -26
-17 -166 60 -153 144 -251 263 -308 65 -30 71 -31 202 -31 110 1 150 5 217 24
l82 23 34 -26 c19 -15 54 -52 79 -84 40 -51 53 -82 121 -297 135 -422 165
-592 174 -955 7 -297 -6 -459 -44 -550 -25 -59 -27 -78 -29 -205 -1 -121 -6
-163 -39 -315 -37 -170 -39 -181 -38 -370 0 -160 6 -239 31 -439 62 -478 40
-666 -103 -866 -38 -54 -134 -151 -140 -143 -10 11 47 185 76 233 75 127 102
227 98 352 -4 79 -8 98 -41 164 -43 87 -122 171 -230 241 -85 57 -80 59 -164
-68 -126 -190 -146 -370 -57 -524 39 -67 125 -169 187 -220 64 -52 64 -61 16
-166 -37 -81 -86 -134 -162 -174 -35 -19 -74 -42 -88 -52 -66 -47 -689 -268
-758 -268 -26 0 -76 -7 -112 -16 -166 -40 -452 28 -825 197 l-50 22 29 8 c20
6 36 3 52 -8 36 -23 94 -33 139 -23 38 8 40 7 73 -31 45 -52 80 -69 142 -69
96 0 160 52 183 149 11 47 14 50 54 60 81 21 143 98 143 178 -1 81 -53 151
-132 175 -35 10 -38 14 -33 39 17 77 -45 170 -130 195 -71 20 -122 7 -180 -47
l-44 -40 -32 16 c-49 26 -137 17 -183 -19 -85 -64 -102 -191 -35 -262 18 -19
18 -22 4 -34 -27 -22 -55 -87 -55 -125 l0 -35 -144 0 c-138 0 -147 1 -237 34
-231 83 -434 113 -652 96 -122 -10 -309 -34 -349 -46 -13 -4 -6 12 23 53 29
43 42 74 48 114 4 30 21 81 38 114 63 125 77 180 78 306 0 113 -1 116 -38 191
-47 97 -148 194 -265 256 l-80 42 -20 -27 c-73 -104 -125 -219 -142 -321 -28
-167 50 -330 225 -471 41 -33 82 -64 91 -69 14 -8 14 -13 -5 -49 -28 -55 -87
-104 -190 -157 -103 -52 -125 -59 -401 -130 -290 -74 -506 -121 -680 -148
-124 -19 -184 -22 -420 -21 -167 0 -357 7 -485 17 -290 24 -701 32 -845 17
-218 -23 -361 -58 -570 -141 -162 -65 -262 -90 -384 -97 l-98 -6 72 73 c60 61
91 82 181 127 263 129 371 327 314 573 -14 58 -73 220 -80 220 -2 0 -43 -14
-92 -31 -335 -117 -443 -311 -372 -667 l22 -106 -60 -56 c-70 -66 -142 -103
-198 -102 -84 1 -299 75 -605 207 -148 64 -188 85 -163 85 6 0 25 14 42 30 29
30 31 30 60 15 41 -21 128 -19 171 4 56 29 94 91 94 154 1 30 -6 66 -16 85
l-17 33 38 38 c47 47 67 113 51 172 -14 51 -71 114 -116 129 -34 12 -104 10
-134 -3 -11 -5 -20 5 -33 33 -22 47 -58 75 -118 91 -94 25 -194 -39 -218 -139
-12 -48 -14 -50 -54 -56 -124 -20 -194 -154 -138 -264 23 -45 46 -67 91 -85
l34 -15 -40 -20 c-60 -30 -201 -72 -244 -72 -52 0 -161 -24 -262 -56 -46 -15
-215 -94 -375 -176 -310 -157 -342 -168 -548 -199 -127 -20 -525 -17 -744 4
-96 10 -176 19 -178 21 -7 7 -92 315 -112 406 -64 297 -54 486 53 930 l23 95
28 -55 c15 -30 35 -66 45 -80 9 -14 23 -54 29 -90 28 -146 105 -287 196 -361
114 -91 292 -119 488 -77 46 9 47 11 43 41 -3 18 -8 61 -11 96 -8 83 -47 204
-83 261 -94 147 -229 209 -467 216 l-130 4 -24 51 c-50 109 -51 250 -2 396 19
57 24 110 25 270 1 44 4 79 7 77 3 -2 9 -45 12 -96 19 -274 144 -445 368 -503
65 -17 283 -25 297 -11 4 4 7 60 6 124 -1 274 -97 425 -321 505 -40 15 -112
31 -160 38 -48 6 -97 13 -108 15 -25 4 -96 132 -120 218 -14 49 -17 90 -13
226 4 161 5 167 30 201 41 53 53 115 33 169 -22 59 -21 65 26 313 97 511 139
770 139 865 0 21 3 48 7 61 6 23 6 22 19 -8 10 -25 11 -44 2 -89 -15 -80 -15
-236 1 -302 51 -206 231 -347 478 -375 l59 -7 22 93 c30 132 35 193 22 274
-29 191 -164 323 -415 409 l-70 24 -32 88 c-17 49 -39 123 -48 164 -9 41 -20
84 -25 95 -5 11 -16 114 -25 229 -28 371 -98 832 -169 1104 -7 29 -10 52 -5
52 4 0 9 -4 11 -9 7 -19 137 -108 209 -144 56 -28 84 -48 105 -78 46 -67 167
-173 236 -206 181 -90 380 -54 575 104 l42 34 -30 51 c-161 273 -367 368 -620
287 -35 -11 -105 -41 -156 -66 l-92 -45 -56 32 c-80 46 -166 120 -231 198 -42
51 -60 84 -76 137 -11 39 -49 166 -85 284 -160 528 -179 806 -72 1036 55 119
197 218 379 266 108 28 317 37 459 19 l101 -12 -69 -74 c-80 -85 -133 -185
-157 -294 -12 -52 -29 -93 -56 -133 -57 -84 -96 -172 -115 -261 -14 -66 -15
-88 -5 -148 23 -131 100 -247 232 -349 41 -32 78 -58 81 -59 17 -1 148 177
183 250 40 84 41 87 41 195 0 106 -1 113 -36 185 -37 78 -132 204 -194 259
-35 31 -36 32 -24 73 26 98 97 200 188 272 33 25 68 46 79 46 19 0 183 -43
407 -108 55 -16 119 -39 142 -51 23 -11 60 -21 82 -21 53 0 167 -27 197 -47
58 -38 779 -36 1069 3 l40 5 -59 -33 c-158 -87 -238 -234 -253 -462 l-6 -94
69 -8 c237 -29 395 14 505 134 78 86 127 198 160 370 l12 63 71 48 c39 27 80
51 91 54 48 15 405 49 588 56 202 8 435 0 562 -19 41 -7 97 -25 137 -44 98
-49 185 -62 328 -46 99 11 132 10 235 -4 487 -64 930 -81 1240 -46 177 21 446
74 528 105 23 9 22 3 -12 -58 -16 -28 -37 -74 -47 -102 -26 -75 -30 -78 -75
-55 -43 22 -127 27 -162 9 -97 -50 -135 -165 -83 -256 l24 -42 -20 -18 c-29
-25 -58 -92 -58 -133 0 -51 32 -113 76 -146 33 -26 46 -29 111 -30 71 -1 75
-3 92 -30 35 -56 100 -94 163 -94 81 0 164 75 175 158 5 39 6 40 54 44 60 6
114 45 140 102 45 100 -2 210 -105 247 -32 12 -33 13 -28 60 9 91 -49 169
-145 193 l-45 12 51 75 c64 96 111 135 270 221 248 136 360 180 537 214 89 16
312 34 369 28 17 -2 82 -6 145 -9z m2979 -324 c41 -79 61 -154 61 -234 l0 -70
-34 69 c-19 38 -44 110 -56 160 -11 50 -36 122 -55 160 l-34 69 44 -49 c24
-27 57 -74 74 -105z m-8276 -108 c-7 -2 -21 -2 -30 0 -10 3 -4 5 12 5 17 0 24
-2 18 -5z m8146 -1619 c2 -2 -8 -17 -23 -34 l-26 -32 0 47 c0 44 1 45 23 34
12 -6 24 -13 26 -15z"/>
</g>
</svg>
