<?xml version="1.0" standalone="no"?>
<!DOCTYPE svg PUBLIC "-//W3C//DTD SVG 20010904//EN"
 "http://www.w3.org/TR/2001/REC-SVG-20010904/DTD/svg10.dtd">
<svg version="1.0" xmlns="http://www.w3.org/2000/svg"
 width="1200.000000pt" height="1200.000000pt" viewBox="0 0 1200.000000 1200.000000"
 preserveAspectRatio="xMidYMid meet">

<g transform="translate(0.000000,1200.000000) scale(0.100000,-0.100000)"
fill="#000000" stroke="none">
<path d="M6180 10830 c0 -5 5 -10 11 -10 5 0 7 5 4 10 -3 6 -8 10 -11 10 -2 0
-4 -4 -4 -10z"/>
<path d="M7100 10229 c-12 -8 -9 -10 13 -6 22 3 42 -6 90 -41 34 -25 56 -38
48 -29 -21 26 -107 87 -122 87 -8 0 -21 -5 -29 -11z"/>
<path d="M8277 10189 c7 -7 15 -10 18 -7 3 3 -2 9 -12 12 -14 6 -15 5 -6 -5z"/>
<path d="M8705 9650 c10 -11 20 -20 23 -20 3 0 -3 9 -13 20 -10 11 -20 20 -23
20 -3 0 3 -9 13 -20z"/>
<path d="M9420 9465 c-11 -13 -10 -22 6 -50 19 -35 47 -46 60 -22 4 6 4 9 -1
5 -10 -9 -35 24 -40 53 -6 30 -10 32 -25 14z"/>
<path d="M9210 9266 c0 -2 8 -10 18 -17 15 -13 16 -12 3 4 -13 16 -21 21 -21
13z"/>
<path d="M9250 9226 c0 -2 7 -7 16 -10 8 -3 12 -2 9 4 -6 10 -25 14 -25 6z"/>
<path d="M9290 9196 c0 -2 8 -10 18 -17 15 -13 16 -12 3 4 -13 16 -21 21 -21
13z"/>
<path d="M9377 9070 c-55 -10 -58 -21 -4 -14 46 7 47 6 98 -46 28 -28 52 -50
54 -48 3 2 -21 29 -53 59 -54 53 -59 55 -95 49z"/>
<path d="M9015 9053 c-51 -4 -195 -44 -195 -55 0 -4 -7 -5 -16 -1 -22 8 -44
-22 -44 -59 0 -21 5 -28 20 -28 13 0 17 5 14 14 -5 13 19 27 51 31 6 1 17 4
25 7 60 22 121 39 155 43 41 6 57 16 61 38 2 14 -6 15 -71 10z m-55 -42 c0 -5
-9 -11 -21 -14 -16 -4 -18 -3 -8 9 13 16 29 19 29 5z"/>
<path d="M10196 8675 c4 -8 8 -15 10 -15 2 0 4 7 4 15 0 8 -4 15 -10 15 -5 0
-7 -7 -4 -15z"/>
<path d="M10217 8523 c-4 -3 -7 -11 -7 -17 0 -6 5 -5 12 2 6 6 9 14 7 17 -3 3
-9 2 -12 -2z"/>
<path d="M10576 8181 c-4 -7 -5 -15 -2 -18 9 -9 19 4 14 18 -4 11 -6 11 -12 0z"/>
<path d="M10675 8140 c-3 -5 -2 -10 4 -10 5 0 13 5 16 10 3 6 2 10 -4 10 -5 0
-13 -4 -16 -10z"/>
<path d="M9750 7946 c0 -2 7 -7 16 -10 8 -3 12 -2 9 4 -6 10 -25 14 -25 6z"/>
<path d="M9930 7254 c0 -8 5 -12 10 -9 6 3 10 10 10 16 0 5 -4 9 -10 9 -5 0
-10 -7 -10 -16z"/>
<path d="M10780 7021 c0 -8 -8 -10 -22 -6 -18 5 -20 4 -8 -4 13 -9 12 -13 -7
-26 -31 -22 -29 -35 5 -35 19 0 23 3 13 9 -7 5 -10 14 -7 20 4 6 11 9 16 6 8
-5 22 36 15 44 -3 2 -5 -1 -5 -8z"/>
<path d="M10711 6932 c-1 -18 26 -45 38 -37 15 8 1 37 -15 31 -7 -3 -15 0 -18
7 -3 8 -5 8 -5 -1z"/>
<path d="M9578 6903 c7 -3 16 -2 19 1 4 3 -2 6 -13 5 -11 0 -14 -3 -6 -6z"/>
<path d="M9550 6889 c0 -6 -3 -8 -8 -6 -4 3 -20 -5 -36 -18 -28 -22 -28 -45 0
-45 8 0 14 -6 14 -12 0 -9 3 -10 8 -2 10 15 52 25 52 12 0 -6 7 -8 15 -4 9 3
15 0 15 -10 0 -12 7 -15 30 -12 17 3 30 0 30 -4 0 -18 29 -38 58 -41 17 -2 37
-11 46 -20 9 -8 26 -19 39 -23 12 -4 41 -23 65 -42 23 -19 42 -29 42 -23 0 6
5 10 11 9 6 -2 16 5 22 15 10 15 7 22 -23 47 -19 16 -41 30 -47 30 -7 0 -13 6
-13 14 0 8 -19 23 -42 34 -136 64 -180 82 -200 82 -13 0 -35 7 -50 14 -16 9
-28 10 -28 5z m120 -69 c0 -5 -2 -10 -4 -10 -3 0 -8 5 -11 10 -3 6 -1 10 4 10
6 0 11 -4 11 -10z m40 -15 c-7 -8 -17 -15 -23 -15 -6 0 -2 7 9 15 25 19 30 19
14 0z m47 -41 c-3 -3 -12 -4 -19 -1 -8 3 -5 6 6 6 11 1 17 -2 13 -5z m30 -9
c0 -8 -4 -15 -9 -15 -4 0 -8 7 -8 15 0 8 4 15 8 15 5 0 9 -7 9 -15z"/>
<path d="M10697 6887 c-10 -25 -9 -27 7 -27 8 0 18 -5 21 -10 4 -7 -2 -9 -19
-4 -22 5 -26 3 -26 -15 0 -13 7 -21 18 -22 14 0 13 -2 -5 -11 -25 -12 -37 -57
-17 -65 17 -6 19 -33 3 -33 -8 0 -8 -5 1 -15 27 -32 60 -13 60 36 0 10 9 28
20 39 11 11 20 30 20 43 0 13 3 27 8 33 4 5 0 3 -8 -6 -8 -8 -24 -17 -34 -18
-17 -3 -18 -1 -7 11 9 12 10 21 1 37 -6 11 -15 18 -20 15 -5 -3 -10 3 -12 12
-3 17 -4 17 -11 0z"/>
<path d="M10311 6773 c0 -5 4 -17 9 -28 8 -18 9 -17 9 8 1 15 -3 27 -9 27 -5
0 -10 -3 -9 -7z"/>
<path d="M10331 6674 c0 -11 3 -14 6 -6 3 7 2 16 -1 19 -3 4 -6 -2 -5 -13z"/>
<path d="M10715 6650 c4 -6 11 -8 16 -5 14 9 11 15 -7 15 -8 0 -12 -5 -9 -10z"/>
<path d="M10330 6615 c0 -15 4 -24 10 -20 6 3 10 12 10 20 0 8 -4 17 -10 20
-6 4 -10 -5 -10 -20z"/>
<path d="M10282 6398 c37 -35 69 -72 71 -83 4 -18 5 -18 6 2 1 26 -59 95 -108
124 -28 16 -21 6 31 -43z"/>
<path d="M10350 6268 c0 -16 5 -28 10 -28 13 0 13 20 0 40 -8 12 -10 9 -10
-12z"/>
<path d="M10362 6155 c0 -16 2 -22 5 -12 2 9 2 23 0 30 -3 6 -5 -1 -5 -18z"/>
<path d="M10361 6054 c0 -11 3 -14 6 -6 3 7 2 16 -1 19 -3 4 -6 -2 -5 -13z"/>
<path d="M10362 5940 c0 -14 2 -19 5 -12 2 6 2 18 0 25 -3 6 -5 1 -5 -13z"/>
<path d="M10361 5844 c0 -11 3 -14 6 -6 3 7 2 16 -1 19 -3 4 -6 -2 -5 -13z"/>
<path d="M1205 5541 c-3 -5 -1 -12 5 -16 5 -3 10 1 10 9 0 18 -6 21 -15 7z"/>
<path d="M1285 5400 c3 -5 14 -10 23 -10 15 0 15 2 2 10 -20 13 -33 13 -25 0z"/>
<path d="M3230 5126 c0 -2 7 -7 16 -10 8 -3 12 -2 9 4 -6 10 -25 14 -25 6z"/>
<path d="M1756 4927 c3 -10 9 -15 12 -12 3 3 0 11 -7 18 -10 9 -11 8 -5 -6z"/>
<path d="M1810 4856 c0 -2 8 -10 18 -17 15 -13 16 -12 3 4 -13 16 -21 21 -21
13z"/>
<path d="M2666 4673 c-6 -14 -5 -15 5 -6 7 7 10 15 7 18 -3 3 -9 -2 -12 -12z"/>
<path d="M2250 4610 c0 -5 5 -10 10 -10 6 0 10 5 10 10 0 6 -4 10 -10 10 -5 0
-10 -4 -10 -10z"/>
<path d="M2682 4579 c22 -44 36 -43 37 1 1 12 -1 12 -8 2 -6 -10 -13 -7 -30
15 -21 27 -21 27 1 -18z"/>
<path d="M2785 4570 c6 -10 4 -12 -8 -7 -20 8 -47 -1 -47 -15 0 -6 6 -5 15 2
29 24 14 -6 -25 -50 -22 -25 -38 -51 -35 -57 2 -7 1 -13 -3 -13 -11 0 -75
-137 -75 -158 0 -9 -3 -21 -7 -27 -4 -5 -11 -29 -15 -52 -4 -24 -11 -43 -16
-43 -5 0 -9 -5 -9 -11 0 -6 5 -7 13 -2 6 4 20 6 30 5 9 -2 17 1 17 7 0 6 8 7
17 4 12 -5 15 -2 11 9 -4 9 -2 20 3 25 6 6 11 28 12 51 0 23 5 36 9 30 4 -8
11 -2 17 15 14 36 14 35 -5 33 -9 0 -19 5 -21 12 -4 9 2 11 19 7 16 -4 29 0
40 12 21 25 31 60 18 68 -5 3 -10 -1 -10 -10 0 -9 -5 -13 -11 -9 -7 4 -7 10
-1 16 6 6 8 18 5 27 -4 11 -1 11 9 -3 15 -19 17 -19 32 -3 10 9 14 22 11 27
-7 12 51 70 69 69 7 0 7 -2 -1 -6 -7 -2 -13 -10 -13 -16 0 -22 23 12 26 38 2
22 -1 25 -24 23 -15 -1 -34 2 -41 7 -10 6 -12 4 -6 -5z m-80 -220 c-3 -5 -11
-10 -16 -10 -6 0 -7 5 -4 10 3 6 11 10 16 10 6 0 7 -4 4 -10z"/>
<path d="M9711 4382 c-11 -12 -139 -249 -708 -1318 -120 -227 -161 -294 -181
-304 -15 -7 -693 -166 -1506 -354 -814 -188 -1481 -346 -1483 -351 -1 -6 1
-16 5 -23 7 -9 72 2 288 52 153 36 770 178 1369 316 600 138 1102 255 1118
260 40 13 34 -6 -10 -29 -53 -27 -1826 -1051 -1835 -1059 -4 -4 3 -12 16 -18
21 -10 64 12 407 211 1333 770 1639 945 1653 945 8 0 23 9 33 19 19 20 46 36
931 547 l552 319 -2 250 c-3 229 -4 250 -20 253 -17 3 -18 -13 -18 -235 l0
-238 -528 -304 c-290 -168 -596 -344 -680 -393 -192 -112 -192 -112 -165 -67
33 54 791 1482 799 1504 6 16 5 18 -7 8 -7 -7 -18 -13 -23 -13 -6 0 2 9 19 20
24 15 25 19 9 18 -11 -1 -26 -8 -33 -16z"/>
<path d="M3812 4280 c0 -14 2 -19 5 -12 2 6 2 18 0 25 -3 6 -5 1 -5 -13z"/>
<path d="M2766 4222 c-12 -14 -15 -28 -10 -48 10 -42 13 -45 34 -34 15 8 18
17 13 43 -10 53 -17 60 -37 39z"/>
<path d="M3500 4151 c0 -5 5 -13 10 -16 6 -3 10 -2 10 4 0 5 -4 13 -10 16 -5
3 -10 2 -10 -4z"/>
<path d="M2019 4066 c-10 -44 -9 -73 1 -145 8 -49 18 -87 22 -85 11 7 8 284
-3 284 -4 0 -13 -25 -20 -54z"/>
<path d="M3590 4043 c0 -6 8 -17 18 -24 16 -13 16 -13 2 6 -8 11 -16 22 -17
24 -2 2 -3 0 -3 -6z"/>
<path d="M2245 4012 c6 -4 20 -25 32 -47 12 -22 28 -41 35 -44 9 -3 8 2 -3 15
-9 10 -24 34 -33 52 -9 17 -22 32 -29 32 -7 0 -8 -3 -2 -8z"/>
<path d="M2969 3980 c-1 -8 -1 -19 0 -24 1 -5 -6 -6 -16 -2 -10 3 34 -44 97
-106 111 -108 115 -111 118 -83 3 24 -10 42 -97 129 -57 57 -102 94 -102 86z"/>
<path d="M2326 3885 c4 -8 10 -15 15 -15 4 0 6 7 3 15 -4 8 -10 15 -15 15 -4
0 -6 -7 -3 -15z"/>
<path d="M1915 3784 c-14 -21 -15 -28 -4 -35 7 -4 17 -5 22 -2 5 3 12 2 16 -3
18 -25 50 -44 65 -38 25 10 20 19 -33 63 l-49 41 -17 -26z"/>
<path d="M2492 3774 c-6 -23 -12 -48 -12 -57 0 -8 -6 -18 -12 -20 -10 -4 -10
-6 0 -6 6 -1 12 -9 12 -18 1 -23 69 -117 78 -108 4 4 1 10 -5 12 -7 3 -13 9
-13 15 0 5 -11 24 -24 41 -30 40 -32 52 -17 105 7 24 11 51 9 60 -2 9 -9 -2
-16 -24z"/>
<path d="M2005 3690 c-3 -5 -2 -10 4 -10 5 0 13 5 16 10 3 6 2 10 -4 10 -5 0
-13 -4 -16 -10z"/>
<path d="M2147 3553 c-22 -21 3 -43 123 -112 72 -41 146 -80 166 -87 20 -7 49
-24 64 -39 15 -14 35 -27 43 -29 9 -1 24 -9 34 -18 10 -8 65 -42 123 -76 83
-47 116 -61 157 -64 60 -5 60 -4 4 26 -22 11 -189 108 -372 214 -182 105 -332
192 -333 192 -2 0 -6 -3 -9 -7z"/>
<path d="M2576 3525 c9 -14 18 -25 20 -25 2 0 -2 11 -8 25 -6 14 -15 25 -20
25 -5 0 -1 -11 8 -25z"/>
<path d="M3710 3222 c0 -13 36 -43 43 -37 4 3 5 2 2 -2 -3 -4 13 -26 36 -49
39 -39 44 -42 55 -26 18 23 17 35 0 29 -9 -4 -13 -1 -10 6 7 20 -70 87 -100
87 -14 0 -26 -4 -26 -8z"/>
<path d="M2932 3059 c46 -23 51 -23 60 2 7 17 3 19 -45 19 l-52 -1 37 -20z"/>
<path d="M3866 3013 c-6 -14 -5 -15 5 -6 7 7 10 15 7 18 -3 3 -9 -2 -12 -12z"/>
<path d="M5522 3005 c-12 -14 -27 -25 -32 -25 -6 0 -10 -8 -8 -17 2 -13 -3
-17 -16 -15 -17 3 -17 2 -3 -19 14 -20 14 -24 -1 -47 -9 -15 -12 -23 -6 -19
16 10 27 -23 13 -39 -8 -10 -8 -14 0 -14 7 0 9 -13 6 -36 -4 -30 -1 -37 16
-41 15 -4 17 -8 8 -14 -10 -6 -10 -10 0 -23 7 -8 10 -19 7 -24 -7 -12 15 -82
26 -82 5 0 6 -9 3 -20 -9 -28 13 -88 36 -101 11 -5 19 -15 18 -22 -3 -25 1
-50 8 -44 7 8 33 -38 33 -59 0 -19 47 -29 65 -14 7 6 11 18 8 26 -3 8 1 14 11
14 20 0 21 16 1 24 -8 3 -15 15 -15 26 0 11 -9 33 -19 48 -11 15 -22 44 -26
65 -3 23 -10 35 -17 31 -7 -4 -8 1 -3 17 7 21 6 22 -9 10 -9 -8 -19 -11 -23
-8 -3 4 -12 2 -20 -4 -10 -9 -13 -8 -13 5 0 15 11 20 37 17 6 -1 15 4 19 10 4
7 3 9 -3 6 -6 -4 -8 12 -7 42 3 41 0 50 -19 59 -12 6 -16 11 -9 11 17 1 15 21
-3 21 -8 0 -15 -7 -15 -15 0 -8 -4 -15 -10 -15 -6 0 -6 9 -1 23 5 12 14 21 19
20 5 -1 9 14 7 35 -1 24 -7 37 -16 37 -20 0 -30 18 -16 27 9 6 8 11 -3 19 -11
8 -12 12 -2 16 6 2 12 18 12 33 0 16 5 32 12 36 6 4 8 3 5 -3 -4 -6 0 -14 9
-17 15 -6 15 -4 0 19 -14 22 -15 25 -1 25 12 0 11 4 -5 20 -26 26 -32 25 -58
-5z m25 -225 c13 0 13 -3 3 -15 -11 -13 -15 -13 -21 -3 -5 7 -8 20 -8 28 0 10
2 11 6 3 2 -7 12 -13 20 -13z m15 -132 c-7 -7 -12 -8 -12 -2 0 14 12 26 19 19
2 -3 -1 -11 -7 -17z m41 7 c4 -9 -5 -22 -22 -35 -24 -16 -30 -17 -34 -5 -4 9
-1 12 7 9 7 -3 18 7 24 21 13 29 18 31 25 10z m41 -137 c-3 -4 -11 -8 -17 -8
-7 0 -6 4 3 10 11 7 11 10 2 10 -7 0 -10 5 -6 11 4 8 9 7 15 -2 4 -7 5 -17 3
-21z"/>
<path d="M3937 2936 c-4 -9 -2 -16 4 -16 6 0 7 -6 3 -12 -5 -10 -4 -10 6 -1 8
7 9 16 3 28 -9 16 -11 16 -16 1z"/>
<path d="M3250 2902 c0 -25 29 -44 408 -262 224 -129 410 -234 415 -232 4 1 7
-3 7 -9 0 -5 5 -7 10 -4 6 3 10 1 10 -5 0 -7 7 -9 16 -6 8 3 12 2 9 -4 -6 -10
8 -15 88 -29 27 -5 45 -5 40 -1 -16 13 -623 360 -632 360 -4 0 -26 13 -48 29
-23 16 -44 27 -47 24 -3 -4 -6 -1 -6 6 0 7 -4 9 -10 6 -5 -3 -10 -2 -10 4 0 6
-10 15 -21 22 -17 9 -20 8 -14 -3 3 -7 -1 -4 -9 6 -9 11 -16 17 -16 13 0 -4
-9 2 -20 13 -12 12 -25 18 -30 15 -6 -4 -10 -2 -10 2 0 5 -13 17 -30 26 -16
10 -30 15 -30 11 0 -4 -6 0 -13 11 -9 11 -19 15 -27 10 -8 -5 -11 -4 -7 2 4 6
0 13 -8 17 -11 4 -15 -2 -15 -22z"/>
<path d="M5439 2928 c0 -2 -2 -14 -5 -27 -4 -21 -2 -22 12 -10 10 8 12 15 5
17 -6 2 -9 8 -5 13 3 5 3 9 0 9 -3 0 -6 -1 -7 -2z"/>
<path d="M3996 2907 c3 -10 9 -15 12 -12 3 3 0 11 -7 18 -10 9 -11 8 -5 -6z"/>
<path d="M4150 2910 c0 -5 5 -10 11 -10 5 0 7 5 4 10 -3 6 -8 10 -11 10 -2 0
-4 -4 -4 -10z"/>
<path d="M4191 2804 c0 -11 3 -14 6 -6 3 7 2 16 -1 19 -3 4 -6 -2 -5 -13z"/>
<path d="M4210 2736 c0 -2 7 -9 15 -16 9 -7 15 -8 15 -2 0 5 -7 12 -15 16 -8
3 -15 4 -15 2z"/>
<path d="M2620 2509 c0 -5 5 -7 10 -4 6 3 10 8 10 11 0 2 -4 4 -10 4 -5 0 -10
-5 -10 -11z"/>
<path d="M2800 2495 c0 -9 5 -15 11 -13 6 2 11 8 11 13 0 5 -5 11 -11 13 -6 2
-11 -4 -11 -13z"/>
<path d="M4835 2500 c-4 -6 5 -10 19 -10 14 0 26 5 26 10 0 6 -9 10 -19 10
-11 0 -23 -4 -26 -10z"/>
<path d="M3015 2430 c-8 -13 25 -13 45 0 12 8 9 10 -12 10 -15 0 -30 -4 -33
-10z"/>
<path d="M4890 2310 c0 -5 4 -10 9 -10 6 0 13 5 16 10 3 6 -1 10 -9 10 -9 0
-16 -4 -16 -10z"/>
<path d="M5640 2301 c0 -5 5 -13 10 -16 6 -3 10 -2 10 4 0 5 -4 13 -10 16 -5
3 -10 2 -10 -4z"/>
<path d="M4324 2255 c30 -18 43 -21 53 -13 19 15 6 24 -47 32 l-45 6 39 -25z"/>
<path d="M5725 2039 c-239 -54 -263 -61 -286 -92 -13 -18 -17 -28 -8 -25 8 3
88 22 179 43 91 21 167 42 168 47 2 4 7 6 12 3 4 -3 6 4 3 15 -6 22 -9 22 -68
9z"/>
<path d="M5150 1886 c0 -22 2 -23 43 -15 23 4 47 9 52 9 14 2 -56 28 -77 29
-12 1 -18 -7 -18 -23z"/>
<path d="M5905 1874 c9 -15 18 -37 20 -49 2 -23 65 -118 65 -99 1 5 7 -2 14
-16 8 -14 13 -27 11 -31 -2 -3 2 -6 10 -6 22 0 18 14 -10 45 -14 15 -43 62
-66 105 -22 42 -45 77 -51 77 -6 0 -3 -12 7 -26z"/>
<path d="M4330 1861 c0 -9 30 -24 36 -18 2 1 -6 8 -16 15 -11 7 -20 8 -20 3z"/>
<path d="M3406 1851 c-3 -5 1 -11 9 -15 8 -3 15 -1 15 4 0 13 -18 22 -24 11z"/>
<path d="M5417 1853 c-3 -5 5 -15 18 -21 20 -9 23 -9 18 3 -3 8 -9 13 -13 10
-5 -3 -10 0 -12 7 -3 8 -6 9 -11 1z"/>
<path d="M5470 1830 c13 -24 17 -25 17 -5 0 8 -6 16 -14 19 -11 4 -11 1 -3
-14z"/>
<path d="M5148 1823 c7 -3 16 -2 19 1 4 3 -2 6 -13 5 -11 0 -14 -3 -6 -6z"/>
<path d="M5543 1805 c0 -9 6 -14 13 -11 7 3 15 0 17 -7 2 -7 7 -9 11 -6 7 7
-20 39 -33 39 -4 0 -8 -7 -8 -15z"/>
<path d="M5620 1791 c1 -17 20 -33 35 -29 31 5 28 25 -5 30 -16 3 -30 2 -30
-1z"/>
<path d="M5190 1757 c25 -12 47 -24 50 -27 10 -11 60 -40 67 -40 4 0 -5 12
-22 26 -35 29 -103 64 -125 63 -8 0 5 -10 30 -22z"/>
<path d="M5700 1760 c-8 -5 -10 -10 -5 -10 6 0 17 5 25 10 8 5 11 10 5 10 -5
0 -17 -5 -25 -10z"/>
<path d="M5360 1687 c35 -50 71 -86 56 -57 -4 8 -1 6 8 -4 13 -16 18 -17 31
-6 8 7 15 16 15 20 0 9 -68 51 -87 54 -7 1 -22 11 -34 22 -16 13 -12 4 11 -29z"/>
<path d="M3430 1690 c0 -5 5 -10 10 -10 6 0 10 5 10 10 0 6 -4 10 -10 10 -5 0
-10 -4 -10 -10z"/>
<path d="M6052 1678 c6 -18 28 -21 28 -4 0 9 -7 16 -16 16 -9 0 -14 -5 -12
-12z"/>
<path d="M6098 1669 c-3 -9 -1 -16 6 -16 6 0 25 -2 41 -6 17 -3 24 -4 16 0
-11 5 -11 7 0 15 10 7 4 8 -18 5 -18 -2 -34 1 -36 7 -2 5 -6 3 -9 -5z"/>
<path d="M6255 1640 c3 -5 -1 -11 -7 -14 -7 -4 -3 -4 9 -2 12 2 24 -1 27 -8 2
-6 5 -4 5 5 1 9 -8 19 -19 22 -11 3 -18 1 -15 -3z"/>
<path d="M5498 1603 c-16 -16 -13 -19 60 -61 72 -42 115 -53 134 -34 6 6 -120
86 -172 110 -3 1 -13 -5 -22 -15z"/>
<path d="M6648 1563 c7 -3 16 -2 19 1 4 3 -2 6 -13 5 -11 0 -14 -3 -6 -6z"/>
<path d="M6430 1379 c-129 -76 -243 -137 -252 -135 -9 2 -108 56 -218 121
-186 108 -204 116 -235 108 -33 -8 -29 -11 204 -145 131 -76 243 -139 248
-140 18 -6 564 315 550 324 -29 19 -75 -2 -297 -133z"/>
<path d="M5286 1361 c-3 -4 -17 -7 -31 -6 -32 4 -36 -4 -24 -49 8 -30 14 -36
29 -31 33 10 0 -40 -34 -53 -16 -7 -27 -15 -23 -18 3 -4 14 -3 24 1 10 4 32 7
49 6 18 -1 35 2 38 8 4 6 14 7 23 4 13 -5 15 -2 10 11 -6 15 -1 17 46 12 64
-6 75 0 83 44 4 24 3 31 -4 22 -7 -11 -11 -8 -17 10 -5 17 -8 19 -11 7 -3 -10
-16 -16 -35 -16 -17 0 -25 4 -18 8 25 15 1 37 -40 36 -23 -1 -41 -4 -41 -7 0
-3 -7 -15 -15 -26 -13 -17 -14 -16 -5 14 8 31 7 41 -4 23z"/>
<path d="M5096 1333 c-5 -12 -9 -14 -18 -5 -15 15 -38 16 -38 2 0 -6 -12 -21
-27 -34 l-27 -23 22 -12 c14 -8 22 -8 22 -1 0 5 -4 10 -10 10 -5 0 -10 5 -10
11 0 6 7 9 15 5 8 -3 15 -1 15 4 0 6 5 10 11 10 6 0 8 -9 4 -20 -4 -11 -2 -20
4 -20 6 0 11 8 11 18 0 10 9 25 20 35 11 9 20 21 20 27 0 15 -7 12 -14 -7z"/>
<path d="M5164 1338 c-3 -4 2 -8 10 -8 9 0 19 0 23 -1 4 0 9 4 11 10 4 11 -37
11 -44 -1z"/>
<path d="M5112 1311 c-20 -28 -20 -29 -2 -24 12 3 20 0 20 -7 0 -10 3 -10 15
0 20 16 19 30 -1 30 -10 0 -14 6 -10 15 8 22 2 18 -22 -14z"/>
<path d="M4980 1304 c0 -8 5 -12 10 -9 6 4 8 11 5 16 -9 14 -15 11 -15 -7z"/>
<path d="M5191 1311 c-7 -5 -10 -14 -7 -20 4 -6 11 -9 16 -6 4 3 10 -2 14 -10
3 -8 10 -15 15 -15 5 0 5 13 -2 30 -12 33 -15 34 -36 21z"/>
<path d="M4960 1259 c0 -5 5 -7 10 -4 6 3 10 8 10 11 0 2 -4 4 -10 4 -5 0 -10
-5 -10 -11z"/>
<path d="M5480 1252 c0 -10 7 -19 15 -19 17 0 17 0 9 21 -8 22 -24 20 -24 -2z"/>
<path d="M5406 1003 c-6 -14 -5 -15 5 -6 7 7 10 15 7 18 -3 3 -9 -2 -12 -12z"/>
</g>
</svg>
