<?xml version="1.0" encoding="utf-8"?>
<!-- Svg Vector Icons : http://www.onlinewebfonts.com/icon -->
<!DOCTYPE svg PUBLIC "-//W3C//DTD SVG 1.1//EN" "http://www.w3.org/Graphics/SVG/1.1/DTD/svg11.dtd">
<svg version="1.1" xmlns="http://www.w3.org/2000/svg" xmlns:xlink="http://www.w3.org/1999/xlink" x="0px" y="0px" viewBox="0 0 1000 1000" enable-background="new 0 0 1000 1000" xml:space="preserve">
<metadata> Svg Vector Icons : http://www.onlinewebfonts.com/icon </metadata>
<g><g transform="matrix(1 0 0 -1 0 1638)"><path d="M267.7,648c-3.4,0-6.6,0.6-9.8,1.8c-3.2,1.2-6,3.1-8.3,5.8c-5,5-7.6,11.1-7.6,18.1c0,7.1,2.5,13.1,7.6,18.1l445.9,445.9l-445.9,446.4c-5,5-7.6,11.1-7.6,18.1c0,7.1,2.5,13.1,7.6,18.1c5,5,11.1,7.6,18.1,7.6c7.1,0,13.1-2.5,18.1-7.6l464.6-464.1c5-5,7.6-11.2,7.6-18.4s-2.5-13.4-7.6-18.4L285.9,655.6c-2.4-2.7-5.1-4.6-8.3-5.8C274.4,648.6,271.1,648,267.7,648L267.7,648z"/></g></g>
</svg>