<?xml version="1.0" encoding="utf-8"?>
<!-- Svg Vector Icons : http://www.onlinewebfonts.com/icon -->
<!DOCTYPE svg PUBLIC "-//W3C//DTD SVG 1.1//EN" "http://www.w3.org/Graphics/SVG/1.1/DTD/svg11.dtd">
<svg version="1.1" xmlns="http://www.w3.org/2000/svg" xmlns:xlink="http://www.w3.org/1999/xlink" x="0px" y="0px" viewBox="0 0 1000 1000" enable-background="new 0 0 1000 1000" xml:space="preserve">
<metadata> Svg Vector Icons : http://www.onlinewebfonts.com/icon </metadata>
<g><g transform="translate(0.000000,511.000000) scale(0.100000,-0.100000)"><path d="M3781.2,4976.5c-348.6-76.5-652.5-312.4-814.1-631.3c-114.8-225.3-125.4-312.4-125.4-945.8v-580.3l537.7,4.3l535.6,6.4l10.6,446.3c10.6,486.7,19.1,518.6,142.4,599.4c53.1,36.1,180.7,38.3,2027.7,38.3c1957.6,0,1972.4,0,2029.8-44.6c31.9-23.4,78.6-70.1,102-102l44.6-57.4V113.5c0-3422-2.1-3600.5-38.3-3666.4c-21.3-38.3-68-89.3-106.3-110.5c-65.9-42.5-112.6-42.5-2049-38.2l-1983,6.4l-78.7,80.8l-80.8,78.6l-6.4,457l-6.4,457h-542h-539.9v-578.1c0-440,8.5-607.9,31.9-697.1c112.6-425.1,482.5-782.2,899.1-869.3c76.5-17,805.6-23.4,2338-23.4c2446.4,0,2333.7-6.4,2601.6,129.6c150.9,76.5,367.7,276.3,465.5,425.1c36.1,57.4,91.4,172.2,121.2,257.2l57.4,155.1l6.4,3851.3c6.4,4276.4,14.9,4012.9-136,4318.9c-153,312.5-471.9,554.7-826.8,629.1C8187.2,5021.2,3987.3,5021.2,3781.2,4976.5z"/><path d="M3266.8,2107.1c-216.8-68-361.3-272.1-361.3-512.2c0-204.1,59.5-297.6,414.5-644L3626,653.3L2335.9,647l-1290.2-6.4l-108.4-57.4C593,400.4,529.2-54.4,814-305.2c165.8-144.5,97.8-138.2,1526.1-144.5l1294.4-6.4L3303-789.8c-199.8-201.9-344.3-365.6-365.6-412.4c-44.6-108.4-40.4-325.2,8.5-431.5c48.9-108.4,216.8-257.2,318.8-286.9c102-27.6,242.3-27.6,350.7,4.2c74.4,21.3,214.7,150.9,931,862.9c945.8,941.6,945.8,941.6,924.6,1188.1c-6.4,89.3-27.6,161.5-63.8,223.2c-29.8,51-420.8,457-869.3,903.3c-775.8,771.5-820.4,811.9-928.8,843.8C3470.9,2145.4,3394.3,2145.4,3266.8,2107.1z"/></g></g>
</svg>