<?xml version="1.0" standalone="no"?>
<!DOCTYPE svg PUBLIC "-//W3C//DTD SVG 20010904//EN"
 "http://www.w3.org/TR/2001/REC-SVG-20010904/DTD/svg10.dtd">
<svg version="1.0" xmlns="http://www.w3.org/2000/svg"
 width="1269.000000pt" height="298.000000pt" viewBox="0 0 1269.000000 298.000000"
 preserveAspectRatio="xMidYMid meet">

<g transform="translate(0.000000,298.000000) scale(0.100000,-0.100000)"
fill="#000000" stroke="none">
<path d="M8255 2741 c-162 -47 -363 -191 -629 -451 -304 -296 -542 -585 -881
-1068 l-128 -182 -73 0 c-115 0 -557 90 -588 120 -4 4 38 68 96 142 57 73 239
313 405 533 334 446 422 553 544 670 81 78 87 81 179 108 188 56 288 137 169
137 -40 0 -125 -36 -215 -92 -64 -39 -83 -45 -320 -93 -255 -52 -412 -99 -506
-154 -97 -56 -216 -180 -266 -278 -67 -129 -83 -207 -89 -423 -3 -131 -1 -181
6 -170 6 8 11 47 11 85 2 302 62 493 199 638 114 119 208 170 426 227 126 33
385 84 392 76 3 -2 -52 -64 -122 -136 -161 -168 -265 -294 -566 -682 -329
-424 -437 -558 -452 -558 -7 0 -78 16 -158 35 -221 55 -355 83 -574 120 -307
52 -395 58 -752 52 -360 -6 -370 -7 -717 -101 -247 -67 -292 -76 -364 -76
-111 0 -192 62 -316 238 -31 45 -66 87 -76 92 -28 15 -80 12 -135 -7 -58 -19
-94 -12 -220 44 -66 30 -92 37 -145 37 -95 0 -155 -25 -308 -127 -203 -134
-232 -146 -430 -173 -45 -7 -34 -18 40 -40 101 -31 322 -26 508 10 183 36 245
37 333 7 83 -28 143 -28 277 -1 103 21 131 20 162 -7 15 -14 16 -19 4 -42 -17
-33 -128 -139 -181 -174 -83 -55 -170 -79 -300 -84 -209 -9 -361 29 -683 171
-209 92 -314 130 -452 163 -96 23 -129 26 -372 30 -256 5 -272 4 -401 -21
-147 -29 -233 -54 -185 -55 15 -1 58 6 96 14 195 41 395 56 577 44 273 -18
422 -60 755 -209 245 -110 449 -163 630 -164 126 0 188 13 297 65 63 30 101
57 157 112 40 41 81 89 91 107 17 34 17 34 -9 56 -37 32 -97 38 -186 19 -131
-30 -183 -30 -258 -4 -91 32 -188 30 -362 -6 -113 -23 -158 -28 -279 -27 -153
0 -194 11 -116 31 67 17 172 72 294 153 57 39 133 84 168 100 91 43 171 37
301 -21 103 -45 132 -49 227 -25 36 9 71 14 79 11 8 -3 55 -59 104 -125 149
-197 186 -218 357 -209 81 5 145 18 340 72 333 91 362 95 785 95 306 0 375 -3
495 -21 287 -42 842 -162 869 -189 6 -6 -20 -41 -70 -96 -118 -128 -174 -195
-174 -205 0 -19 49 -8 86 20 21 16 88 79 149 140 60 61 116 111 125 111 8 0
89 -18 180 -40 175 -43 293 -65 403 -76 40 -4 67 -11 67 -18 0 -11 -102 -140
-192 -245 l-36 -43 -144 41 c-249 70 -260 72 -468 78 -160 4 -207 3 -260 -11
-100 -25 -224 -91 -271 -145 -41 -46 -86 -122 -72 -120 5 0 33 31 64 67 63 76
147 130 249 164 81 26 301 36 419 19 148 -22 451 -103 451 -120 0 -15 -219
-194 -298 -246 -85 -55 -192 -105 -288 -135 -54 -17 -104 -23 -225 -27 l-156
-6 -62 33 c-68 36 -141 109 -141 140 0 11 -4 20 -10 20 -13 0 -13 -21 0 -54
17 -46 79 -103 142 -132 60 -27 70 -29 198 -29 302 0 507 83 813 328 60 48
111 87 114 87 3 0 150 -47 327 -106 393 -128 562 -178 714 -209 401 -81 676
-51 897 96 124 83 226 209 395 489 85 141 110 203 111 284 l0 51 15 -49 c17
-54 29 -59 14 -5 -15 51 -12 165 5 206 8 20 13 38 10 41 -3 3 -5 0 -5 -7 0 -7
-14 -26 -31 -42 -31 -29 -31 -30 -39 -161 -4 -73 -12 -146 -19 -163 -20 -49
-145 -254 -212 -349 -35 -50 -104 -131 -154 -181 -75 -75 -105 -98 -177 -133
-146 -71 -214 -85 -428 -86 -290 -2 -476 40 -1111 250 -268 89 -288 97 -279
115 6 10 52 67 103 127 51 59 103 121 117 139 l25 31 145 12 c386 31 688 129
960 313 436 293 760 783 763 1152 1 84 -3 108 -22 153 -28 61 -75 107 -128
121 -51 14 -77 13 -148 -8z m-885 -20 c0 -10 -123 -66 -169 -76 -53 -11 -29
12 52 51 69 33 117 43 117 25z m1037 -12 c38 -14 71 -46 95 -93 18 -35 20 -53
16 -170 -4 -116 -9 -141 -37 -221 -166 -460 -576 -875 -1053 -1064 -169 -67
-406 -117 -601 -128 l-118 -6 137 189 c357 493 543 719 854 1038 364 373 572
507 707 455z"/>
<path d="M9727 1713 c-9 -2 -14 -9 -11 -15 4 -6 -2 -8 -16 -3 -12 4 -32 3 -44
-3 -11 -5 -57 -23 -101 -40 -61 -24 -74 -27 -55 -12 32 25 22 25 -32 1 -24
-10 -61 -26 -83 -36 l-40 -17 20 22 20 23 -25 -13 c-14 -7 -33 -19 -43 -28
-23 -20 -32 -10 -16 19 l12 23 -31 -24 c-79 -62 -92 -71 -92 -61 0 28 -32 -8
-56 -64 -32 -74 -44 -79 -20 -9 20 60 20 70 -1 53 -15 -12 -16 -12 -9 6 4 11
-17 -5 -45 -35 -56 -57 -76 -55 -40 6 42 70 16 55 -34 -21 -50 -75 -61 -155
-38 -265 l5 -25 13 30 c11 24 14 26 14 10 3 -49 14 -50 103 -12 45 19 106 40
133 45 28 6 66 15 85 21 38 10 251 65 500 129 284 73 430 78 643 22 144 -37
269 -89 487 -203 l175 -91 100 0 c74 1 125 8 195 27 373 100 363 99 521 95
l146 -3 85 -42 c47 -24 91 -43 98 -43 48 0 -113 84 -202 105 -124 29 -247 17
-503 -50 -195 -51 -271 -65 -356 -66 -92 -1 -104 5 -221 100 -49 39 -127 103
-175 142 -138 111 -315 225 -380 245 -32 10 -65 24 -74 31 -9 8 -54 18 -100
23 -104 12 -384 13 -407 1 -9 -4 -31 -11 -49 -14 -26 -5 -31 -3 -26 8 5 15 2
16 -30 8z m-167 -78 c0 -2 -10 -9 -22 -15 -22 -11 -22 -10 -4 4 21 17 26 19
26 11z m-55 -35 c-3 -5 -12 -10 -18 -10 -7 0 -6 4 3 10 19 12 23 12 15 0z
m-539 -221 c-12 -53 -14 -58 -15 -28 -1 35 17 104 25 96 2 -2 -2 -33 -10 -68z"/>
<path d="M8925 1453 c-9 -23 -24 -243 -18 -260 13 -32 18 -6 15 75 -2 48 1
112 6 142 11 57 10 74 -3 43z"/>
<path d="M3626 968 c-22 -35 -53 -136 -61 -198 -16 -127 37 -262 138 -356 150
-140 359 -191 675 -166 375 30 712 167 1052 427 53 41 105 84 116 96 l19 22
-40 -7 c-53 -10 -77 -24 -160 -91 -381 -308 -824 -461 -1234 -425 -195 17
-361 92 -461 208 -97 113 -114 284 -45 454 25 61 25 73 1 36z"/>
</g>
</svg>
