<?xml version="1.0" standalone="no"?>
<!DOCTYPE svg PUBLIC "-//W3C//DTD SVG 20010904//EN"
 "http://www.w3.org/TR/2001/REC-SVG-20010904/DTD/svg10.dtd">
<svg version="1.0" xmlns="http://www.w3.org/2000/svg"
 width="1195.000000pt" height="475.000000pt" viewBox="0 0 1195.000000 475.000000"
 preserveAspectRatio="xMidYMid meet">
<metadata>
Created by potrace 1.16, written by Peter Selinger 2001-2019
</metadata>
<g transform="translate(0.000000,475.000000) scale(0.100000,-0.100000)"
fill="#000000" stroke="none">
<path d="M6958 4606 c-26 -7 -86 -38 -135 -68 -105 -66 -112 -68 -330 -108
-298 -53 -431 -97 -558 -181 -133 -89 -228 -224 -275 -389 -40 -146 -50 -465
-14 -477 8 -3 13 49 17 174 5 205 22 286 87 422 55 114 161 221 275 279 103
51 243 94 415 127 74 14 155 30 180 35 l45 8 -87 -81 c-168 -159 -271 -282
-663 -792 -256 -332 -371 -475 -384 -475 -5 0 -100 22 -212 49 -483 117 -820
164 -1184 164 -307 1 -464 -23 -800 -120 -373 -108 -441 -91 -608 149 -37 53
-77 104 -89 113 -30 20 -67 19 -128 -5 -28 -11 -61 -20 -72 -20 -12 0 -71 23
-131 51 -108 52 -109 52 -187 46 -96 -6 -152 -32 -297 -135 -147 -105 -228
-141 -352 -154 -56 -6 -101 -15 -101 -20 0 -12 41 -26 125 -45 111 -24 277
-20 425 12 260 54 259 54 367 10 72 -29 122 -31 213 -9 132 31 152 33 192 17
21 -8 38 -18 38 -22 0 -22 -114 -139 -177 -181 -112 -75 -187 -95 -353 -95
-196 1 -333 38 -621 170 -336 154 -517 196 -849 196 -176 0 -315 -14 -461 -47
-87 -19 -115 -32 -102 -45 6 -6 66 2 159 21 124 26 181 32 335 37 336 10 550
-32 844 -169 303 -140 465 -188 661 -195 158 -7 247 10 357 65 79 39 196 148
232 216 l20 38 -23 19 c-53 42 -93 45 -227 15 -136 -30 -159 -29 -237 10 -66
33 -133 31 -342 -11 -176 -35 -296 -44 -391 -27 l-40 7 54 13 c76 17 157 61
295 158 89 63 137 90 189 105 89 28 129 22 247 -36 103 -50 151 -56 219 -29
21 8 54 14 72 12 30 -3 41 -14 107 -108 86 -124 113 -154 168 -186 98 -58 203
-52 483 27 347 99 474 119 786 119 238 0 438 -18 710 -65 142 -24 529 -110
623 -138 l43 -13 -148 -161 c-131 -141 -153 -161 -187 -167 -58 -10 -175 -62
-228 -101 -52 -38 -115 -125 -121 -165 -3 -21 -26 -36 -143 -96 -154 -78 -275
-121 -434 -155 -138 -30 -417 -33 -523 -6 -115 29 -211 79 -282 148 -139 133
-165 277 -86 474 35 86 35 85 22 85 -15 0 -69 -117 -81 -177 -20 -95 -9 -208
28 -286 59 -126 195 -227 372 -274 105 -29 438 -25 589 5 143 29 296 80 428
142 l101 48 7 -35 c10 -53 84 -127 154 -154 71 -28 248 -37 359 -19 224 36
457 155 663 340 l71 63 372 -122 c560 -183 776 -231 1038 -231 219 1 363 39
506 134 113 75 204 184 352 421 93 149 140 250 140 304 l1 46 14 -32 c16 -38
40 -45 30 -10 -5 19 -4 20 5 5 16 -26 30 -22 31 10 l0 27 11 -25 c11 -24 12
-24 18 15 4 22 8 31 9 20 3 -43 15 -49 65 -34 25 7 46 17 46 21 0 4 6 8 13 8
6 0 25 7 40 15 15 8 34 12 41 9 8 -3 17 -1 21 5 3 6 19 11 35 11 16 0 32 4 35
10 3 5 15 10 26 10 11 0 48 9 82 20 34 11 100 28 147 39 47 10 175 42 284 70
187 48 207 51 324 51 131 0 292 -28 412 -72 99 -37 293 -129 385 -183 50 -30
112 -59 138 -66 66 -16 180 -6 297 26 348 94 361 97 475 98 123 2 177 -12 282
-69 68 -38 83 -41 83 -19 0 18 -74 62 -159 93 -89 32 -217 39 -336 18 -49 -8
-173 -38 -275 -66 -330 -90 -343 -88 -555 90 -194 162 -427 327 -476 337 -16
3 -27 9 -24 13 5 8 -19 20 -38 19 -7 0 -3 -4 8 -9 19 -8 19 -9 -2 -9 -13 -1
-23 5 -23 12 0 42 -426 58 -545 20 -17 -5 -18 -4 -6 11 12 14 10 16 -13 16
-22 0 -119 -32 -214 -71 -33 -13 -40 -11 -18 6 39 30 6 25 -44 -6 -60 -37
-102 -47 -93 -22 5 14 1 13 -28 -3 -19 -10 -42 -25 -51 -33 -28 -22 -21 0 9
31 37 39 22 46 -20 9 -19 -17 -38 -31 -43 -31 -4 0 -21 -12 -37 -27 -20 -19
-31 -24 -34 -15 -8 21 -19 13 -38 -28 -10 -22 -20 -38 -22 -36 -3 2 1 14 7 26
15 28 4 39 -15 14 -13 -16 -14 -16 -9 -1 10 27 -12 20 -39 -13 -14 -16 -30
-30 -35 -30 -5 0 -14 -10 -20 -22 -6 -13 -11 -18 -11 -12 -1 6 13 30 30 53 17
24 28 46 25 49 -10 10 -77 -61 -102 -108 l-23 -45 5 35 6 35 -27 -30 c-26 -29
-27 -29 -11 -3 9 15 16 33 16 39 0 21 -26 -8 -45 -50 -9 -22 -25 -41 -35 -44
-23 -6 -34 -77 -25 -171 l7 -72 -54 -104 c-73 -144 -219 -360 -303 -449 -91
-97 -188 -160 -306 -199 -185 -61 -394 -63 -668 -8 -182 37 -314 76 -682 198
l-337 111 89 99 c49 55 108 124 131 154 l43 54 66 0 c254 0 561 73 804 190
451 217 842 674 941 1097 20 87 23 225 5 284 -15 55 -60 113 -104 136 -56 29
-161 21 -254 -19 -272 -118 -714 -533 -1094 -1028 -99 -129 -319 -434 -399
-553 l-45 -67 -52 0 c-29 0 -101 7 -160 16 -117 17 -411 88 -425 102 -5 5 31
58 86 125 52 65 217 282 367 485 150 202 314 419 365 482 117 146 283 310 314
310 31 0 198 57 237 81 47 29 61 58 37 76 -21 16 -35 16 -96 -1z m1099 -52
c19 -10 47 -35 61 -57 24 -37 27 -51 30 -151 4 -123 -7 -181 -65 -326 -146
-363 -494 -727 -874 -913 -220 -107 -552 -187 -781 -187 l-39 0 44 58 c24 31
97 134 164 227 252 357 506 659 792 946 251 250 392 361 526 410 54 20 87 19
142 -7z m-2332 -1568 c169 -47 378 -86 460 -86 74 0 73 -9 -14 -116 -44 -55
-95 -116 -113 -136 l-33 -38 -125 36 c-228 64 -340 84 -500 86 -80 1 -126 3
-103 5 39 4 50 13 175 143 79 82 139 137 148 135 8 -2 56 -15 105 -29z m-145
-301 c100 -16 389 -91 403 -104 11 -11 -158 -159 -259 -227 -186 -124 -344
-175 -544 -176 -136 -1 -183 12 -257 68 -33 25 -73 90 -73 117 0 8 31 33 69
56 137 81 356 254 345 272 -9 15 213 10 316 -6z"/>
<path d="M2428 1433 c-53 -9 -25 -33 38 -33 l34 0 0 -180 c0 -153 2 -180 15
-180 13 0 15 27 15 180 l0 180 38 0 c39 0 71 14 60 26 -8 8 -163 14 -200 7z"/>
<path d="M5005 1424 c-38 -20 -45 -31 -45 -76 0 -45 15 -62 92 -106 70 -40 89
-77 65 -126 -31 -67 -119 -69 -153 -5 -8 16 -19 29 -24 29 -20 0 -9 -41 19
-72 26 -29 35 -33 80 -33 44 0 55 4 83 33 29 28 33 39 33 83 0 46 -4 54 -36
82 -20 18 -57 44 -83 59 -48 28 -56 50 -36 89 13 24 43 24 81 2 15 -9 31 -14
34 -11 12 11 -8 37 -40 52 -40 19 -34 19 -70 0z"/>
<path d="M5250 1241 l0 -201 106 0 c80 0 105 3 102 13 -3 8 -33 13 -91 15
l-87 3 0 74 0 75 90 0 c73 0 90 3 90 15 0 12 -17 15 -90 15 l-90 0 0 74 0 74
84 3 c81 4 107 11 92 26 -4 4 -52 9 -106 11 l-100 4 0 -201z"/>
<path d="M6480 1241 l0 -201 106 0 c80 0 105 3 102 13 -3 8 -33 13 -91 15
l-87 3 0 74 0 75 90 0 c73 0 90 3 90 15 0 12 -17 15 -90 15 l-90 0 0 74 0 74
84 3 c81 4 107 11 92 26 -4 4 -52 9 -106 11 l-100 4 0 -201z"/>
<path d="M8350 1241 l0 -201 101 0 c76 0 100 3 97 13 -3 8 -32 13 -86 15 l-82
3 0 74 0 75 85 0 c69 0 85 3 85 15 0 12 -16 15 -85 15 l-85 0 0 74 0 74 79 3
c77 4 102 11 87 26 -4 4 -49 9 -101 11 l-95 4 0 -201z"/>
<path d="M9088 1433 c-53 -9 -25 -33 38 -33 l34 0 0 -180 c0 -153 2 -180 15
-180 13 0 15 27 15 180 l0 180 38 0 c39 0 71 14 60 26 -8 8 -163 14 -200 7z"/>
<path d="M9380 1241 l0 -201 101 0 c76 0 100 3 97 13 -3 8 -32 13 -86 15 l-82
3 0 74 0 75 85 0 c69 0 85 3 85 15 0 12 -16 15 -85 15 l-85 0 0 74 0 74 79 3
c77 4 102 11 87 26 -4 4 -49 9 -101 11 l-95 4 0 -201z"/>
<path d="M2720 1235 c0 -167 2 -195 15 -195 12 0 15 14 15 65 l0 65 33 0 c29
-1 36 -8 72 -65 26 -43 46 -65 58 -65 18 0 18 2 5 23 -8 12 -27 43 -42 69 -26
45 -26 47 -7 53 36 11 61 58 61 114 0 91 -48 131 -155 131 l-55 0 0 -195z
m126 150 c49 -20 70 -71 49 -120 -16 -39 -62 -65 -115 -65 l-30 0 0 100 0 100
30 0 c17 0 46 -7 66 -15z"/>
<path d="M3040 1272 c0 -146 2 -161 21 -186 63 -80 188 -69 225 19 21 51 20
325 -1 325 -13 0 -15 -22 -16 -137 -1 -76 -4 -149 -8 -163 -4 -14 -22 -35 -41
-48 -42 -28 -83 -24 -120 13 -24 24 -25 32 -30 177 -4 109 -9 153 -17 156 -10
3 -13 -33 -13 -156z"/>
<path d="M3505 1413 c-42 -22 -65 -43 -83 -78 -77 -147 36 -323 194 -301 57 7
114 34 114 52 0 16 -36 19 -45 4 -12 -20 -87 -32 -127 -21 -79 24 -128 88
-128 168 0 122 137 201 250 143 24 -12 41 -16 45 -10 29 46 -148 81 -220 43z"/>
<path d="M3935 1414 c-75 -39 -108 -93 -109 -179 -1 -86 34 -144 109 -181 47
-22 64 -26 106 -21 53 6 109 33 117 55 5 17 -24 15 -55 -5 -16 -11 -46 -17
-79 -17 -44 0 -59 5 -91 30 -100 81 -103 197 -7 270 48 37 123 43 178 15 38
-20 56 -20 56 -1 0 5 -18 19 -40 30 -48 25 -142 27 -185 4z"/>
<path d="M4355 1416 c-17 -7 -44 -29 -62 -49 -112 -128 -35 -320 134 -334 71
-6 130 21 177 80 27 33 31 48 34 110 3 66 1 76 -26 118 -38 59 -97 89 -173 89
-30 -1 -68 -7 -84 -14z m181 -45 c119 -93 86 -263 -58 -301 -74 -20 -151 18
-188 95 -39 80 -10 164 75 217 42 26 130 21 171 -11z"/>
<path d="M5560 1236 c0 -166 2 -196 15 -196 12 0 15 28 17 172 l3 173 65 -84
c36 -47 70 -86 76 -88 5 -2 39 35 75 82 l64 85 3 -170 c2 -142 5 -170 17 -170
13 0 15 30 15 195 0 238 -3 241 -106 109 l-67 -86 -26 33 c-80 103 -109 134
-129 137 l-22 3 0 -195z"/>
<path d="M6160 1252 c0 -99 3 -187 6 -196 13 -34 24 -13 24 48 l0 63 62 6 c56
5 66 10 95 41 28 30 33 43 33 86 0 43 -5 55 -34 87 -33 36 -37 38 -110 41
l-76 4 0 -180z m162 109 c17 -19 28 -43 28 -61 0 -18 -11 -42 -28 -61 -23 -26
-38 -33 -80 -37 l-52 -5 0 103 0 103 52 -5 c42 -4 57 -11 80 -37z"/>
<path d="M6790 1236 c0 -168 2 -196 15 -196 12 0 15 14 15 65 l0 65 34 0 c31
0 37 -6 75 -65 22 -36 47 -65 56 -65 21 0 20 5 -20 71 l-36 58 38 35 c36 33
38 38 38 95 0 55 -3 64 -32 92 -28 29 -38 32 -107 37 l-76 5 0 -197z m162 125
c17 -19 28 -43 28 -61 0 -18 -11 -42 -28 -61 -23 -26 -38 -33 -80 -37 l-52 -5
0 103 0 103 52 -5 c42 -4 57 -11 80 -37z"/>
<path d="M7110 1234 c0 -152 3 -195 13 -192 9 4 13 49 15 172 l2 168 67 -86
c36 -47 70 -86 74 -86 5 0 40 41 79 91 l70 91 0 -177 c0 -137 3 -176 13 -173
9 4 13 54 15 196 2 186 2 192 -17 192 -24 0 -46 -22 -109 -107 -25 -35 -48
-63 -51 -63 -3 1 -35 39 -69 85 -99 131 -102 128 -102 -111z"/>
<path d="M7601 1238 c-39 -105 -69 -193 -66 -196 14 -14 36 15 60 83 l28 76
65 -3 65 -3 27 -75 c26 -71 50 -102 50 -63 0 18 -95 292 -120 346 -7 15 -19
27 -25 27 -7 0 -45 -86 -84 -192z"/>
<path d="M7922 1241 c1 -104 6 -193 11 -197 17 -17 22 16 27 163 l5 155 99
-139 c118 -164 134 -183 158 -183 17 0 18 13 18 196 0 152 -3 195 -12 192 -10
-3 -14 -50 -18 -171 l-5 -166 -50 71 c-143 204 -195 268 -216 268 -21 0 -21
-2 -17 -189z"/>
<path d="M8660 1235 c0 -167 2 -195 15 -195 13 0 15 22 15 138 0 196 2 198 61
115 159 -222 184 -253 207 -253 l22 0 0 195 c0 165 -2 195 -15 195 -12 0 -15
-28 -17 -171 l-3 -171 -59 83 c-138 195 -190 259 -208 259 -17 0 -18 -13 -18
-195z"/>
<path d="M5201 583 c-73 -35 -161 -120 -161 -155 0 -15 5 -30 11 -33 13 -9 59
3 59 15 0 5 -7 7 -15 4 -62 -24 78 125 148 156 46 21 92 26 102 10 9 -15 -28
-86 -79 -151 l-44 -56 -68 -6 c-84 -7 -163 -36 -227 -83 -107 -79 -115 -164
-14 -164 76 0 222 85 316 184 21 21 45 36 58 36 23 0 23 -1 8 -30 -9 -18 -13
-40 -9 -52 5 -17 12 -20 45 -15 21 3 51 14 68 26 37 26 39 26 34 -3 -9 -43 15
-37 63 15 27 28 56 55 65 60 15 7 14 3 -4 -29 -34 -64 -4 -94 51 -51 l27 21 5
-23 c8 -32 24 -34 40 -3 8 14 37 44 64 67 l50 42 -22 -36 c-44 -72 -18 -116
41 -69 25 20 25 20 30 0 6 -25 31 -25 65 -1 25 18 24 13 -20 -77 -53 -106 -61
-152 -28 -152 29 0 92 61 124 120 16 29 30 74 33 105 7 62 28 82 28 26 0 -32
3 -36 29 -39 18 -2 45 7 75 25 l46 29 0 -30 c0 -43 17 -41 45 5 14 23 37 50
53 61 l27 19 0 -21 c0 -11 7 -23 15 -26 17 -7 95 40 95 57 0 5 -10 3 -22 -5
-34 -24 -44 -19 -18 8 23 26 22 56 -3 56 -8 0 -26 -9 -40 -20 -25 -20 -25 -20
-30 0 -8 31 -33 24 -64 -17 -29 -38 -135 -113 -160 -113 -24 0 -4 18 40 38 54
24 99 67 95 90 -6 31 -50 25 -120 -18 -37 -22 -70 -40 -73 -40 -7 0 45 77 102
151 47 61 53 79 24 79 -22 0 -61 -43 -150 -166 -32 -45 -74 -92 -92 -105 -35
-24 -34 -22 20 48 31 41 34 63 8 63 -6 0 -43 -30 -81 -67 -70 -70 -74 -69 -24
4 31 45 35 62 16 64 -28 3 -45 -5 -88 -39 -40 -32 -42 -32 -18 -6 22 23 25 33
16 42 -20 20 -33 14 -76 -37 -23 -28 -56 -60 -73 -72 l-31 -22 37 56 c43 65
42 93 -2 76 -15 -6 -37 -18 -48 -28 -34 -30 -51 -36 -26 -8 23 25 22 47 -3 47
-6 0 -32 -21 -56 -46 -48 -50 -125 -104 -148 -104 -22 0 -2 21 34 36 41 17
104 71 104 89 0 18 -34 28 -62 19 -13 -4 -42 -20 -65 -35 -23 -16 -48 -26 -57
-23 -12 5 -8 15 20 53 62 87 79 154 48 185 -24 25 -100 20 -163 -11z m-3 -235
c-8 -22 -135 -124 -197 -156 -69 -38 -121 -43 -121 -12 0 64 179 168 308 179
8 1 12 -5 10 -11z"/>
<path d="M6929 586 c-19 -13 -73 -70 -119 -125 -88 -107 -93 -110 -169 -95
-39 8 -83 48 -75 68 7 19 -7 21 -24 4 -18 -18 -14 -53 9 -74 11 -10 49 -23 85
-29 l66 -11 -44 -46 c-26 -28 -66 -56 -101 -72 -62 -27 -78 -49 -54 -73 14
-14 18 -13 49 9 75 57 225 80 361 56 42 -8 77 -11 77 -8 0 19 -209 55 -280 48
l-40 -4 47 48 c28 28 79 64 123 86 84 41 185 133 196 177 15 61 -44 84 -107
41z"/>
<path d="M4551 521 c-59 -62 -151 -216 -151 -252 0 -15 7 -29 15 -33 8 -3 15
-1 15 4 0 5 13 7 30 4 35 -8 70 12 118 64 l33 37 -17 -37 c-31 -66 5 -91 59
-41 25 25 22 17 -22 -67 -52 -97 -66 -160 -36 -160 8 0 21 12 29 28 8 15 33
49 56 75 45 51 48 76 3 36 l-26 -24 22 40 c12 22 46 72 74 109 29 38 56 75 62
82 14 19 -10 42 -30 29 -7 -6 -46 -39 -87 -75 -53 -47 -68 -57 -54 -35 10 17
29 41 42 56 28 29 30 44 8 53 -11 4 -27 -6 -48 -29 l-33 -35 5 29 c6 44 -28
50 -80 16 -22 -15 -37 -21 -32 -13 15 27 68 94 102 130 34 36 36 58 4 58 -9 0
-36 -22 -61 -49z"/>
<path d="M7005 406 c-70 -30 -132 -107 -120 -146 9 -27 34 -25 75 5 19 14 34
25 35 25 1 0 1 -10 1 -22 -1 -33 35 -35 71 -4 29 24 29 25 29 3 -1 -33 31 -33
73 1 l37 29 -1 -26 c0 -34 26 -39 64 -12 l30 21 3 -22 c5 -35 21 -30 48 13 14
22 39 51 56 64 l31 24 -5 -25 c-5 -29 17 -41 48 -24 20 11 21 10 11 -9 -18
-33 -14 -61 10 -61 20 0 134 98 125 108 -3 2 -26 -13 -53 -34 -47 -38 -47 -38
-29 -9 10 17 29 41 41 55 12 14 20 31 18 38 -9 23 -37 12 -80 -30 -24 -23 -43
-37 -43 -32 0 6 9 19 20 29 44 40 8 72 -41 36 -16 -12 -28 -17 -27 -10 2 6 -5
16 -14 22 -14 9 -27 0 -81 -59 -72 -77 -97 -83 -41 -10 34 45 39 76 11 76 -7
0 -37 -25 -67 -56 -88 -89 -113 -96 -48 -13 30 40 34 54 17 65 -6 3 -43 -26
-85 -67 -71 -71 -96 -85 -54 -32 22 28 27 63 9 63 -6 0 -36 -20 -68 -45 -69
-54 -88 -58 -40 -9 54 56 98 80 120 66 21 -14 26 -3 7 16 -15 15 -55 15 -93
-2z"/>
</g>
</svg>
