<?xml version="1.0" standalone="no"?>
<!DOCTYPE svg PUBLIC "-//W3C//DTD SVG 20010904//EN"
 "http://www.w3.org/TR/2001/REC-SVG-20010904/DTD/svg10.dtd">
<svg version="1.0" xmlns="http://www.w3.org/2000/svg"
 width="400" height="400" viewBox="0 0 2362.000000 2362.000000"
 preserveAspectRatio="xMidYMid meet">

<g transform="translate(0.000000,2362.000000) scale(0.100000,-0.100000)"
fill="green" stroke="none">
<path d="M13575 16721 c-80 -29 -162 -73 -293 -160 -141 -93 -113 -85 -520
-156 -444 -77 -670 -138 -884 -238 -417 -195 -663 -545 -732 -1044 -38 -274
-26 -686 19 -641 3 2 7 128 9 279 2 224 7 295 24 389 74 407 247 693 534 883
197 131 499 232 898 302 85 15 220 40 299 55 l145 28 -45 -41 c-392 -353 -616
-612 -1234 -1422 -381 -500 -553 -721 -702 -901 l-134 -162 -127 34 c-212 56
-615 151 -828 193 -1043 209 -1856 241 -2559 100 -177 -35 -259 -57 -585 -154
-281 -84 -369 -103 -495 -112 -264 -17 -399 79 -639 452 -105 163 -153 196
-261 176 -30 -6 -76 -21 -102 -34 -106 -54 -180 -43 -346 49 -54 30 -133 66
-175 80 -69 24 -88 26 -182 21 -171 -8 -290 -61 -519 -232 -157 -116 -249
-175 -347 -222 -130 -61 -223 -84 -382 -90 -111 -5 -132 -8 -130 -21 6 -31
214 -83 408 -103 195 -19 394 2 709 75 319 75 394 75 552 1 91 -43 113 -49
185 -53 71 -4 102 1 268 43 205 51 250 54 326 15 66 -34 68 -42 17 -112 -290
-404 -733 -546 -1319 -422 -265 56 -485 137 -863 319 -460 221 -864 318 -1380
332 -322 9 -616 -20 -930 -91 -165 -37 -205 -50 -205 -66 0 -21 29 -21 126 4
411 102 817 136 1214 101 442 -39 803 -141 1199 -339 174 -87 336 -154 521
-216 594 -199 1070 -168 1421 91 116 86 309 311 309 360 0 25 -76 77 -139 96
-75 21 -155 13 -316 -33 -105 -31 -147 -38 -220 -38 -88 -1 -92 0 -195 49
l-105 50 -135 0 c-123 -1 -152 -5 -320 -44 -414 -95 -546 -105 -823 -64 -59 9
-106 17 -105 19 2 1 46 11 98 22 189 39 313 102 565 287 77 56 167 119 200
139 147 88 315 125 445 95 25 -5 118 -46 208 -92 162 -81 164 -81 240 -82 65
0 88 5 149 33 93 42 158 44 202 6 17 -14 70 -85 117 -157 162 -247 227 -319
344 -385 87 -49 174 -65 315 -59 137 7 247 32 560 127 364 110 628 167 940
202 81 9 251 13 525 13 351 -1 433 -4 615 -24 383 -41 736 -98 1130 -182 207
-45 773 -184 782 -193 11 -11 -139 -177 -386 -429 l-146 -149 40 6 c22 3 67 8
100 11 l60 7 166 166 c91 92 202 207 246 257 l81 89 203 -57 c235 -66 375 -98
544 -127 148 -25 364 -50 427 -50 27 0 48 -3 48 -7 0 -18 -202 -269 -356 -443
l-86 -97 -161 49 c-215 64 -494 133 -642 159 -173 30 -490 37 -644 15 -265
-39 -507 -154 -641 -303 -46 -53 -120 -182 -120 -212 0 -25 61 32 85 78 72
143 272 285 490 349 368 108 795 71 1444 -125 l155 -47 -105 -99 c-375 -357
-719 -555 -1109 -638 -142 -31 -469 -34 -570 -6 -187 51 -327 171 -355 305 -7
34 -12 37 -34 23 -29 -18 16 -133 82 -207 123 -140 343 -205 641 -191 527 26
1002 251 1511 719 l60 55 560 -188 c308 -103 637 -211 730 -239 753 -227 1284
-288 1727 -199 341 68 636 254 847 533 175 232 413 607 501 788 76 157 86 206
66 324 -11 62 -14 111 -9 155 l8 64 6 -100 c7 -102 35 -205 64 -234 25 -26 26
-6 1 50 -75 171 -54 366 57 523 12 16 16 26 9 22 -21 -13 -75 -99 -99 -156
-12 -30 -23 -47 -23 -37 0 10 -8 17 -19 17 -15 0 -22 -11 -30 -50 -20 -93 -23
-183 -8 -263 16 -90 11 -134 -29 -229 -85 -204 -434 -744 -599 -927 -399 -442
-982 -567 -1835 -395 -192 39 -522 125 -755 198 -188 58 -1125 373 -1133 380
-1 2 41 50 95 107 118 127 248 277 331 385 l63 81 187 6 c906 29 1718 379
2352 1016 361 362 617 761 756 1176 62 188 86 315 87 465 2 144 -12 219 -56
308 -35 72 -107 144 -177 175 -69 31 -195 35 -301 8 -474 -120 -1332 -889
-2121 -1902 -223 -287 -601 -811 -774 -1074 -77 -117 -80 -120 -119 -123 -95
-9 -473 42 -700 94 -114 26 -461 121 -482 133 -8 4 16 40 68 101 229 270 354
434 883 1154 553 753 738 982 979 1212 126 120 126 120 194 133 193 38 431
130 492 192 32 32 40 66 19 87 -18 18 -125 13 -183 -7z m139 -30 c13 -20 -82
-78 -196 -121 -57 -21 -238 -71 -238 -65 0 8 168 110 226 137 100 47 196 69
208 49z m1896 -44 c78 -39 129 -101 162 -197 20 -57 23 -84 23 -225 -1 -141
-4 -173 -29 -275 -113 -459 -400 -937 -805 -1340 -586 -584 -1288 -910 -2122
-986 -92 -8 -204 -14 -249 -12 l-82 3 85 110 c48 61 128 171 179 245 676 989
1603 2034 2193 2475 166 123 334 211 450 235 62 12 124 2 195 -33z m777 -2439
c-3 -7 -5 -2 -5 12 0 14 2 19 5 13 2 -7 2 -19 0 -25z"/>
<path d="M18058 14883 c6 -2 18 -2 25 0 6 3 1 5 -13 5 -14 0 -19 -2 -12 -5z"/>
<path d="M17945 14856 c-38 -14 -108 -41 -153 -60 -93 -40 -96 -41 -86 -25 4
6 -14 0 -40 -15 -25 -14 -67 -38 -93 -52 -27 -15 -63 -36 -82 -47 -58 -35 -24
1 45 47 35 23 61 45 58 48 -3 4 12 18 33 32 20 14 34 26 29 26 -5 0 -65 -36
-132 -80 -123 -80 -166 -101 -109 -55 42 35 16 31 -63 -9 -44 -22 -88 -56
-129 -99 -35 -36 -63 -62 -63 -57 0 5 53 59 118 121 116 111 123 121 48 67
-21 -15 -42 -25 -47 -23 -4 3 -22 -12 -40 -34 -17 -22 -38 -42 -47 -46 -12 -4
-13 -3 -2 10 14 16 0 21 -16 5 -6 -6 -10 -3 -10 11 0 13 29 48 74 90 47 45 63
65 44 55 -33 -17 -123 -102 -197 -186 -48 -55 -38 -30 18 45 l31 40 -48 -45
c-26 -25 -66 -73 -88 -107 -23 -35 -44 -63 -46 -63 -4 0 22 47 53 93 25 38 1
34 -37 -5 l-31 -33 31 58 c17 32 25 53 17 47 -21 -18 -112 -206 -150 -310 -19
-52 -34 -84 -34 -70 0 14 11 57 25 95 14 39 26 79 25 89 0 10 15 50 33 88 36
75 26 87 -14 17 -15 -24 -30 -42 -34 -39 -5 3 -19 -15 -32 -40 -13 -25 -23
-42 -24 -37 0 4 18 44 40 88 33 64 37 78 21 70 -39 -21 -105 -120 -153 -229
-16 -37 -26 -53 -23 -37 3 17 19 59 36 94 35 77 32 91 -7 24 -29 -51 -64 -100
-64 -90 0 3 6 31 14 61 16 60 52 121 105 180 40 44 27 40 -36 -11 -59 -47
-139 -171 -165 -256 -31 -100 -30 -225 2 -329 24 -80 43 -105 33 -44 -3 19 -2
70 3 113 l8 78 8 -60 c13 -97 29 -155 43 -155 8 0 16 4 19 9 3 5 14 7 24 4 24
-6 39 14 45 57 l4 35 1 -39 c2 -32 4 -37 17 -26 8 6 23 9 35 5 16 -5 20 -2 20
14 0 16 6 21 25 21 14 0 28 6 31 14 3 8 14 11 28 9 23 -5 33 2 61 42 13 19 14
19 20 -8 9 -34 28 -35 43 -2 13 28 21 29 70 16 29 -9 34 -7 49 15 9 14 22 23
30 20 7 -3 24 -1 38 4 15 6 26 6 30 -1 4 -5 17 -2 33 9 32 22 59 34 90 38 13
1 29 7 36 13 7 6 27 9 46 6 20 -2 49 4 72 15 21 10 40 14 44 9 3 -5 20 -3 39
5 18 8 35 12 38 10 2 -3 17 1 33 7 16 6 42 13 57 15 16 2 38 9 50 16 12 7 35
13 51 14 15 1 38 7 50 13 38 19 529 140 631 156 127 19 374 19 485 0 219 -37
415 -85 548 -135 142 -52 544 -241 627 -295 31 -19 58 -35 61 -35 2 0 35 -20
72 -45 89 -60 172 -86 299 -92 133 -7 255 14 498 84 348 101 399 115 522 139
344 67 613 25 862 -136 61 -39 81 -43 81 -15 0 32 -195 138 -330 179 -257 77
-512 58 -952 -70 -439 -128 -547 -150 -687 -141 -135 9 -197 36 -305 130 -50
44 -95 86 -99 93 -4 8 -13 14 -18 14 -18 0 -148 101 -146 113 1 6 -29 32 -67
59 -38 26 -88 65 -110 85 -45 41 -129 101 -311 222 -66 44 -133 90 -150 104
-16 13 -46 29 -65 37 -19 7 -42 20 -52 27 -9 8 -72 25 -140 38 -72 14 -108 24
-88 25 19 1 44 5 55 9 24 9 -87 26 -239 37 -127 9 -182 24 -66 19 67 -3 77 -2
45 5 -84 19 -314 11 -450 -16 -24 -4 -27 -3 -15 6 12 9 7 10 -25 6 -30 -4 -36
-3 -25 5 11 8 6 9 -20 5 -119 -19 -204 -38 -268 -61 -40 -14 -77 -23 -82 -20
-10 6 -60 -18 -92 -44 -10 -8 -18 -10 -18 -4 0 6 28 25 61 43 34 18 59 28 55
21 -10 -16 -5 -14 66 19 95 45 34 39 -96 -10 -58 -22 -112 -40 -119 -39 -17 1
64 37 158 70 44 15 73 28 65 28 -8 0 -46 -10 -85 -23z m640 5 c-40 -16 -75
-21 -75 -12 0 9 31 17 75 19 l20 1 -20 -8z m-355 -26 c-14 -8 -29 -14 -35 -14
-5 0 1 6 15 14 14 8 30 14 35 14 6 0 -1 -6 -15 -14z m-81 -10 c-20 -7 -51 -20
-70 -29 -32 -16 -33 -16 -14 0 27 22 76 43 100 43 12 0 6 -5 -16 -14z m819 -2
c-16 -2 -40 -2 -55 0 -16 2 -3 4 27 4 30 0 43 -2 28 -4z m-1208 -87 c0 -2 -7
-7 -16 -10 -8 -3 -12 -2 -9 4 6 10 25 14 25 6z m60 0 c0 -9 -56 -44 -80 -50
-14 -4 -2 6 25 22 59 35 55 33 55 28z m-140 -21 c-6 -8 -22 -17 -33 -21 -12
-4 -48 -25 -80 -47 -55 -38 -87 -48 -50 -14 16 13 162 96 172 97 2 0 -2 -7 -9
-15z m-300 -69 c0 -2 -8 -10 -17 -17 -16 -13 -17 -12 -4 4 13 16 21 21 21 13z
m180 -79 c0 -2 -26 -25 -57 -51 l-58 -48 54 51 c52 48 61 55 61 48z m-410 -20
c0 -2 -10 -12 -22 -23 l-23 -19 19 23 c18 21 26 27 26 19z m-516 -146 c-25
-63 -57 -203 -70 -311 l-7 -65 -9 45 c-9 47 -4 125 14 200 14 58 79 190 93
190 1 0 -8 -27 -21 -59z m188 19 c-9 -21 -18 -35 -20 -30 -3 9 25 70 33 70 2
0 -4 -18 -13 -40z m96 -45 c-6 -14 -13 -23 -15 -21 -5 5 15 46 22 46 3 0 -1
-11 -7 -25z m-211 -137 c-3 -8 -6 -5 -6 6 -1 11 2 17 5 13 3 -3 4 -12 1 -19z
m3308 -28 c3 -5 2 -10 -4 -10 -5 0 -13 5 -16 10 -3 6 -2 10 4 10 5 0 13 -4 16
-10z m-2655 -40 c-6 -11 -13 -20 -16 -20 -2 0 0 9 6 20 6 11 13 20 16 20 2 0
0 -9 -6 -20z"/>
<path d="M18398 14873 c7 -3 16 -2 19 1 4 3 -2 6 -13 5 -11 0 -14 -3 -6 -6z"/>
<path d="M19138 14803 c7 -3 16 -2 19 1 4 3 -2 6 -13 5 -11 0 -14 -3 -6 -6z"/>
<path d="M19178 14793 c7 -3 16 -2 19 1 4 3 -2 6 -13 5 -11 0 -14 -3 -6 -6z"/>
<path d="M16530 14404 c-8 -8 -15 -23 -16 -32 -1 -10 -9 -48 -18 -87 -21 -94
-20 -191 4 -299 32 -146 18 -143 -21 4 -30 115 -31 244 -1 320 14 35 16 48 6
35 -57 -76 -56 -300 3 -446 13 -33 17 -36 32 -27 17 10 17 15 -1 102 -25 116
-20 279 11 376 22 69 22 80 1 54z"/>
<path d="M6943 13524 c-90 -153 -126 -286 -127 -464 -1 -101 4 -140 22 -203
81 -282 289 -480 628 -596 302 -103 801 -106 1257 -6 508 110 1017 359 1491
729 130 102 239 196 232 203 -2 2 -46 -4 -98 -13 l-93 -18 -95 -80 c-375 -316
-721 -522 -1134 -676 -540 -201 -1196 -234 -1591 -79 -170 66 -258 122 -370
234 -109 108 -155 182 -194 308 -57 187 -27 417 84 637 48 95 40 111 -12 24z"/>
<path d="M5180 10850 c0 -19 7 -20 90 -20 l90 0 0 -335 c0 -328 0 -335 20
-335 20 0 20 7 20 335 l0 335 90 0 c83 0 90 1 90 20 0 19 -7 20 -200 20 -193
0 -200 -1 -200 -20z"/>
<path d="M7273 10855 c-200 -62 -305 -262 -244 -463 28 -92 94 -168 189 -214
61 -30 75 -33 157 -33 94 1 147 17 216 66 27 19 29 23 16 36 -12 13 -19 11
-52 -11 -122 -83 -283 -72 -392 28 -70 64 -105 131 -111 217 -7 99 16 165 83
237 115 124 287 147 421 56 33 -23 39 -24 52 -10 13 13 9 18 -34 46 -91 57
-207 75 -301 45z"/>
<path d="M8063 10855 c-200 -62 -305 -262 -244 -463 28 -92 94 -168 189 -214
61 -30 75 -33 157 -33 94 1 147 17 216 66 27 19 29 23 16 36 -12 13 -19 11
-52 -11 -122 -83 -283 -72 -392 28 -70 64 -105 131 -111 217 -7 99 16 165 83
237 115 124 287 147 421 56 33 -23 39 -24 52 -10 13 13 9 18 -34 46 -91 57
-207 75 -301 45z"/>
<path d="M8839 10857 c-104 -30 -190 -104 -237 -206 -23 -47 -27 -70 -27 -146
0 -82 3 -97 32 -156 39 -79 102 -140 181 -177 48 -23 71 -27 147 -27 76 0 99
4 147 27 79 37 142 98 181 177 29 59 32 74 32 156 0 82 -3 97 -32 156 -61 123
-171 197 -306 205 -42 2 -91 -1 -118 -9z m236 -60 c64 -33 128 -99 157 -162
34 -75 33 -201 -4 -270 -77 -145 -243 -217 -393 -170 -71 23 -155 96 -193 169
-23 44 -27 63 -27 141 0 75 4 97 24 135 27 53 94 125 136 147 95 51 214 55
300 10z"/>
<path d="M9970 10847 c-57 -30 -83 -77 -77 -139 6 -71 38 -105 152 -163 122
-62 156 -100 163 -179 4 -46 0 -62 -22 -100 -75 -128 -264 -107 -312 35 -6 18
-14 24 -25 20 -26 -10 -4 -67 46 -116 120 -120 312 -61 347 106 23 112 -30
193 -172 264 -105 52 -140 90 -140 147 0 52 51 108 99 108 38 0 85 -22 104
-50 9 -13 20 -18 31 -14 43 17 -61 104 -126 104 -13 0 -44 -10 -68 -23z"/>
<path d="M10440 10510 l0 -360 180 0 c173 0 180 1 180 20 0 19 -7 20 -160 20
l-160 0 0 150 0 150 160 0 c153 0 160 1 160 20 0 19 -7 20 -160 20 l-160 0 0
150 0 150 160 0 c153 0 160 1 160 20 0 19 -7 20 -180 20 l-180 0 0 -360z"/>
<path d="M12710 10510 l0 -360 180 0 c173 0 180 1 180 20 0 19 -7 20 -160 20
l-160 0 0 150 0 150 160 0 c153 0 160 1 160 20 0 19 -7 20 -160 20 l-160 0 0
150 0 150 160 0 c153 0 160 1 160 20 0 19 -7 20 -180 20 l-180 0 0 -360z"/>
<path d="M16150 10510 l0 -360 180 0 c173 0 180 1 180 20 0 19 -7 20 -160 20
l-160 0 0 150 0 150 160 0 c153 0 160 1 160 20 0 19 -7 20 -160 20 l-160 0 0
150 0 150 160 0 c153 0 160 1 160 20 0 19 -7 20 -180 20 l-180 0 0 -360z"/>
<path d="M17470 10850 c0 -19 7 -20 90 -20 l90 0 0 -335 c0 -328 0 -335 20
-335 20 0 20 7 20 335 l0 335 90 0 c83 0 90 1 90 20 0 19 -7 20 -200 20 -193
0 -200 -1 -200 -20z"/>
<path d="M18050 10510 l0 -360 180 0 c173 0 180 1 180 20 0 19 -7 20 -160 20
l-160 0 0 150 0 150 160 0 c153 0 160 1 160 20 0 19 -7 20 -160 20 l-160 0 0
150 0 150 160 0 c153 0 160 1 160 20 0 19 -7 20 -180 20 l-180 0 0 -360z"/>
<path d="M5760 10505 c0 -348 0 -355 20 -355 19 0 20 7 20 125 l0 125 68 0 67
-1 76 -122 c54 -87 82 -123 98 -125 11 -2 21 0 21 4 0 3 -35 60 -77 126 -61
96 -74 121 -62 129 8 5 19 9 24 9 21 0 86 63 107 103 30 57 31 156 1 212 -49
92 -116 124 -260 125 l-103 0 0 -355z m228 300 c49 -21 81 -52 103 -100 34
-74 22 -144 -34 -204 -45 -48 -84 -61 -177 -61 l-80 0 0 190 0 190 75 0 c46 0
90 -6 113 -15z"/>
<path d="M6350 10596 c0 -170 4 -275 11 -297 18 -52 55 -96 107 -126 39 -23
59 -28 117 -28 110 0 184 52 220 156 12 32 15 97 15 300 0 252 -1 259 -20 259
-19 0 -20 -7 -20 -260 0 -279 -4 -305 -53 -359 -68 -73 -200 -80 -270 -14 -65
62 -67 75 -67 368 0 258 -1 265 -20 265 -19 0 -20 -7 -20 -264z"/>
<path d="M11010 10506 c0 -349 0 -356 20 -356 20 0 20 7 20 336 l0 336 134
-176 c74 -97 137 -178 139 -179 3 -1 66 78 141 177 l136 178 0 -336 c0 -329 0
-336 20 -336 20 0 20 7 20 355 l0 355 -32 0 c-31 -1 -42 -12 -156 -167 -94
-125 -127 -162 -135 -154 -7 7 -64 80 -127 164 -103 136 -118 152 -147 155
l-33 3 0 -355z"/>
<path d="M11850 10505 c0 -348 0 -355 20 -355 20 0 20 7 20 355 0 348 0 355
-20 355 -20 0 -20 -7 -20 -355z"/>
<path d="M12120 10505 c0 -348 0 -355 20 -355 19 0 20 7 20 125 l0 125 78 0
c96 0 137 11 185 51 130 107 105 314 -46 385 -44 20 -67 24 -154 24 l-103 0 0
-355z m228 300 c49 -21 81 -52 103 -100 34 -74 22 -144 -34 -204 -45 -48 -84
-61 -177 -61 l-80 0 0 190 0 190 75 0 c46 0 90 -6 113 -15z"/>
<path d="M13280 10505 c0 -348 0 -355 20 -355 19 0 20 7 20 125 l0 125 68 0
67 -1 76 -122 c54 -87 82 -123 98 -125 11 -2 21 0 21 4 0 3 -35 60 -77 126
-61 96 -74 121 -62 129 8 5 19 9 24 9 21 0 86 63 107 103 30 57 31 156 1 212
-49 92 -116 124 -260 125 l-103 0 0 -355z m228 300 c49 -21 81 -52 103 -100
34 -74 22 -144 -34 -204 -45 -48 -84 -61 -177 -61 l-80 0 0 190 0 190 75 0
c46 0 90 -6 113 -15z"/>
<path d="M13860 10506 c0 -349 0 -356 20 -356 20 0 20 7 20 336 l0 336 134
-176 c74 -97 137 -178 139 -179 3 -1 66 78 141 177 l136 178 0 -336 c0 -329 0
-336 20 -336 20 0 20 7 20 355 l0 355 -32 0 c-31 -1 -42 -12 -156 -167 -94
-125 -127 -162 -135 -154 -7 7 -64 80 -127 164 -103 136 -118 152 -147 155
l-33 3 0 -355z"/>
<path d="M14790 10553 c-62 -169 -121 -329 -131 -355 l-19 -48 23 0 c19 0 29
19 78 153 l55 152 126 3 125 3 53 -148 c29 -81 56 -152 60 -156 4 -5 15 -7 23
-5 12 2 -10 74 -111 353 -108 299 -130 350 -148 353 -19 3 -32 -27 -134 -305z
m190 92 c27 -77 50 -140 50 -142 0 -2 -49 -3 -109 -3 l-108 0 42 118 c60 164
65 175 70 170 2 -2 27 -67 55 -143z"/>
<path d="M15370 10505 c0 -348 0 -355 20 -355 19 0 20 8 22 323 l3 322 230
-322 c220 -308 231 -322 263 -322 l32 -1 0 355 c0 348 0 355 -20 355 -19 0
-20 -8 -22 -328 l-3 -329 -235 328 c-210 293 -238 328 -262 329 l-28 0 0 -355z"/>
<path d="M16730 10505 c0 -348 0 -355 20 -355 19 0 20 8 22 323 l3 322 230
-322 c220 -308 231 -322 263 -322 l32 -1 0 355 c0 348 0 355 -20 355 -19 0
-20 -8 -22 -328 l-3 -329 -235 328 c-210 293 -238 328 -262 329 l-28 0 0 -355z"/>
<path d="M10434 9336 c-224 -73 -459 -300 -379 -366 17 -14 82 -7 99 10 8 8 4
10 -16 5 -42 -11 -50 1 -29 43 23 44 105 132 180 191 99 78 224 129 282 116
84 -19 44 -134 -118 -337 l-72 -91 -93 -2 c-193 -7 -395 -91 -525 -220 -96
-96 -109 -179 -33 -218 117 -60 402 83 637 320 89 90 92 92 124 83 45 -13 49
-5 4 10 l-37 12 25 27 c44 46 136 191 157 247 27 73 26 116 -4 151 -21 24 -31
28 -92 30 -38 1 -87 -3 -110 -11z m-90 -442 c51 -19 -242 -268 -408 -345 -111
-52 -196 -56 -211 -10 -7 24 22 94 57 133 55 62 182 139 298 180 94 34 230 55
264 42z"/>
<path d="M13565 9328 c-58 -30 -176 -154 -289 -301 -54 -71 -106 -132 -115
-135 -37 -16 -166 -5 -219 18 -80 34 -123 95 -90 128 20 20 -7 14 -36 -9 -34
-27 -35 -71 -1 -105 44 -44 110 -66 219 -73 l99 -6 -67 -77 c-88 -99 -134
-135 -202 -158 -68 -24 -131 -59 -138 -77 -7 -18 13 -60 31 -68 9 -3 24 6 36
21 25 33 138 86 228 108 161 40 376 39 538 -2 98 -25 76 -9 -30 22 -114 33
-269 50 -399 44 l-105 -5 110 111 c86 88 121 116 160 130 123 46 237 118 320
202 59 60 105 142 105 186 0 65 -76 87 -155 46z m110 -18 c4 -12 -4 -43 -20
-77 -48 -105 -219 -253 -348 -302 -36 -14 -38 -17 104 159 174 216 246 276
264 220z"/>
<path d="M9193 9243 c-86 -76 -295 -393 -324 -491 -12 -40 -11 -45 9 -65 22
-21 22 -21 22 -1 0 29 69 121 127 170 59 50 152 108 160 101 11 -12 -53 -105
-123 -176 -64 -66 -75 -73 -103 -69 -17 2 -31 1 -31 -3 0 -14 60 -31 89 -24
70 15 204 150 232 233 9 28 8 36 -7 53 -36 40 -87 19 -209 -85 l-60 -51 25 40
c85 142 236 335 275 353 27 12 27 13 9 27 -29 22 -56 18 -91 -12z"/>
<path d="M12025 9218 c-25 -29 -85 -111 -133 -182 -48 -71 -114 -157 -146
-193 -57 -61 -144 -128 -154 -118 -13 12 111 193 140 204 17 6 17 8 2 29 -26
38 -49 27 -108 -52 -61 -81 -179 -186 -208 -186 -14 0 32 82 90 159 43 58 53
78 45 90 -25 40 -63 22 -220 -111 l-96 -80 43 61 c24 34 59 75 77 91 l33 30
-20 20 c-11 11 -24 20 -29 20 -6 0 -29 -23 -53 -52 -86 -103 -122 -140 -181
-183 -32 -25 -63 -45 -68 -45 -15 0 29 80 89 159 43 58 53 78 45 90 -25 40
-63 22 -220 -111 l-96 -80 43 61 c24 34 59 75 77 91 l33 30 -20 20 c-11 11
-24 20 -28 20 -10 0 -60 -53 -97 -102 -15 -21 -57 -60 -94 -87 -123 -92 -211
-126 -211 -82 0 29 31 57 77 70 58 16 163 90 187 131 l20 33 -23 18 c-31 25
-45 24 -117 -10 -51 -24 -158 -105 -160 -121 0 -3 -8 -17 -17 -31 -31 -46 -39
-90 -22 -116 32 -49 126 -21 247 73 l57 45 -25 -55 c-19 -42 -23 -60 -15 -74
16 -30 41 -36 41 -10 0 26 131 156 219 217 35 24 60 38 55 30 -5 -8 -33 -49
-61 -93 -55 -81 -65 -123 -38 -146 23 -19 54 -6 127 54 l67 55 -20 -43 c-21
-48 -17 -71 12 -87 16 -8 19 -6 19 12 0 27 129 156 219 218 35 24 60 38 55 30
-5 -8 -33 -49 -61 -93 -55 -81 -65 -123 -38 -146 22 -19 54 -6 123 50 l62 51
-17 -36 c-13 -27 -15 -40 -7 -53 26 -41 75 -20 172 72 23 22 42 37 42 33 0 -5
-20 -43 -45 -86 -52 -90 -147 -288 -165 -344 -28 -89 15 -112 94 -50 124 96
224 293 214 420 l-5 54 48 25 c61 30 65 30 40 -2 -33 -41 -44 -94 -26 -121 33
-50 135 -18 255 79 74 60 73 76 -2 20 -109 -82 -198 -115 -198 -73 0 29 31 57
77 70 58 16 163 90 187 131 l20 33 -23 18 c-13 11 -31 19 -40 19 -24 0 -132
-53 -166 -82 -31 -27 -147 -88 -165 -88 -23 0 222 345 279 392 34 29 26 48
-20 48 -21 0 -39 -13 -74 -52z m-1235 -278 c-37 -52 -150 -135 -172 -127 -27
10 144 154 185 157 5 0 -1 -13 -13 -30z m1390 0 c-37 -52 -150 -135 -172 -127
-27 10 144 154 185 157 5 0 -1 -13 -13 -30z m-358 -257 c-20 -96 -70 -181
-159 -272 -46 -46 -86 -81 -90 -78 -7 8 124 273 194 392 l47 80 10 -34 c6 -23
6 -51 -2 -88z"/>
<path d="M11752 9087 c-43 -52 -25 -108 19 -61 13 15 32 29 43 33 17 7 17 8 1
24 -20 20 -48 22 -63 4z"/>
<path d="M14772 9087 c-43 -52 -25 -108 19 -61 13 15 32 29 43 33 17 7 17 8 1
24 -20 20 -48 22 -63 4z"/>
<path d="M9466 8892 c-166 -162 -222 -198 -184 -119 25 52 107 157 128 165 19
7 19 9 4 30 -32 46 -71 17 -163 -127 -48 -75 -61 -125 -38 -148 26 -26 59 -8
157 84 91 85 93 86 53 33 -55 -75 -146 -233 -194 -337 -46 -98 -50 -156 -13
-161 16 -2 25 5 34 29 19 45 92 144 159 213 37 39 46 52 25 38 -17 -11 -61
-53 -98 -92 -65 -70 -67 -70 -45 -28 82 161 224 372 309 457 31 31 32 32 15
51 -10 11 -22 20 -28 20 -5 0 -59 -49 -121 -108z"/>
<path d="M12338 8987 c-21 -16 -130 -147 -123 -147 3 0 -8 -25 -25 -56 -35
-66 -37 -85 -11 -108 17 -16 19 -15 32 16 7 18 29 50 47 70 19 21 31 42 28 47
-7 11 54 96 91 127 26 23 25 37 -6 54 -13 6 -23 5 -33 -3z"/>
<path d="M12497 8985 c-41 -21 -138 -98 -177 -141 l-35 -38 50 41 c28 22 63
48 78 58 l29 19 -21 -40 c-26 -48 -26 -56 -1 -79 18 -17 21 -16 62 4 24 11 61
37 83 56 l40 36 -50 -34 c-54 -37 -95 -54 -95 -39 0 12 52 82 79 106 26 23 27
42 3 55 -13 7 -27 6 -45 -4z"/>
<path d="M13700 8984 c-160 -58 -303 -238 -234 -295 22 -18 54 -4 140 65 l81
64 -20 -49 c-16 -38 -19 -54 -11 -67 26 -40 75 -20 167 67 42 39 43 38 22 -13
-12 -27 -13 -42 -5 -56 23 -43 66 -21 199 104 39 37 50 43 37 23 -31 -51 -47
-107 -36 -128 21 -39 56 -25 168 68 l40 33 -19 -37 c-24 -47 -24 -65 0 -87 17
-16 19 -15 32 16 7 18 29 50 47 70 19 21 31 42 28 47 -7 11 54 96 92 129 l27
23 -23 19 c-13 10 -29 17 -37 13 -8 -3 -40 -38 -70 -78 -51 -68 -192 -195
-217 -195 -24 0 48 122 113 192 46 49 47 50 28 69 -10 10 -23 19 -28 19 -6 0
-45 -36 -88 -81 -81 -84 -222 -204 -230 -195 -10 10 60 126 109 180 41 47 48
59 38 71 -21 26 -47 16 -87 -31 -110 -134 -232 -242 -241 -214 -4 12 32 73 71
117 20 23 27 38 22 53 -10 31 -32 24 -93 -31 -65 -58 -202 -152 -210 -144 -9
8 66 111 112 153 48 44 118 87 158 96 20 5 33 1 48 -14 22 -22 27 -13 7 14
-18 24 -83 29 -137 10z"/>
<path d="M14547 8985 c-41 -21 -138 -98 -177 -141 l-35 -38 50 41 c28 22 63
48 78 58 l29 19 -21 -40 c-26 -48 -26 -56 -2 -78 21 -19 51 -11 104 26 16 12
28 17 26 12 -3 -5 -18 -35 -34 -67 -23 -45 -27 -61 -19 -75 29 -46 95 -10 219
120 72 75 63 70 -39 -20 -57 -51 -116 -90 -116 -76 0 28 116 193 142 203 17 6
17 8 2 29 -24 34 -47 27 -93 -30 -43 -53 -89 -90 -128 -102 -13 -4 -23 -3 -23
2 0 12 52 82 79 106 26 23 27 42 3 55 -13 7 -27 6 -45 -4z"/>
<!-- <path d="M12487 6480 l-27 -21 0 -365 c0 -351 1 -365 20 -384 19 -19 33 -20
370 -20 337 0 351 1 370 20 19 19 20 33 20 379 0 338 -1 360 -19 382 l-19 24
-344 3 c-337 3 -345 2 -371 -18z m698 -385 l0 -350 -337 -3 -338 -2 0 348 c0
192 3 352 7 355 4 4 155 6 337 5 l331 -3 0 -350z"/>
<path d="M13035 6350 c-15 -16 -17 -26 -9 -48 17 -50 94 -39 94 14 0 49 -52
70 -85 34z"/>
<path d="M12760 6273 c-187 -99 -136 -364 74 -380 76 -6 136 23 181 86 27 38
30 51 30 114 0 62 -4 78 -28 113 -34 50 -90 83 -154 90 -40 5 -57 1 -103 -23z
m177 -59 c119 -91 58 -274 -92 -274 -72 0 -138 60 -150 135 -14 89 81 184 170
170 21 -3 54 -17 72 -31z"/>
<path d="M4900 6160 l0 -220 25 0 c18 0 25 5 25 20 0 18 2 18 38 -6 63 -43
142 -23 196 50 29 38 29 124 0 162 -32 44 -68 66 -115 71 -36 4 -51 0 -81 -21
l-38 -25 0 94 c0 95 0 95 -25 95 l-25 0 0 -220z m215 8 c73 -64 32 -188 -62
-188 -27 0 -43 8 -70 35 -32 32 -35 39 -30 78 11 84 103 126 162 75z"/>
<path d="M3890 6155 l0 -215 25 0 25 0 2 177 3 176 69 -91 c39 -50 73 -89 77
-86 4 2 36 43 71 90 l63 85 3 -175 2 -176 25 0 25 0 0 215 0 215 -29 0 c-24 0
-38 -13 -92 -85 -35 -46 -67 -85 -71 -85 -3 0 -36 38 -73 85 -56 72 -70 85
-96 85 l-29 0 0 -215z"/>
<path d="M5610 6155 l0 -215 25 0 25 0 0 215 0 215 -25 0 -25 0 0 -215z"/>
<path d="M6590 6345 c-30 -32 -19 -44 16 -16 34 26 68 27 94 1 11 -11 20 -31
20 -44 0 -31 -33 -72 -65 -80 -33 -8 -32 -22 3 -29 81 -18 125 -86 98 -152
-30 -70 -114 -88 -167 -36 -16 16 -29 37 -29 45 0 9 -4 16 -10 16 -22 0 -8
-44 24 -76 30 -30 40 -34 85 -34 129 0 176 152 71 229 l-38 27 24 21 c34 30
33 95 -1 128 -34 35 -93 34 -125 0z"/>
<path d="M7020 6345 c-30 -32 -19 -44 16 -16 34 26 68 27 94 1 11 -11 20 -31
20 -44 0 -31 -33 -72 -65 -80 -33 -8 -32 -22 3 -29 81 -18 125 -86 98 -152
-30 -70 -114 -88 -167 -36 -16 16 -29 37 -29 45 0 9 -4 16 -10 16 -22 0 -8
-44 24 -76 30 -30 40 -34 85 -34 129 0 176 152 71 229 l-38 27 24 21 c34 30
33 95 -1 128 -34 35 -93 34 -125 0z"/>
<path d="M7454 6352 c-32 -25 -44 -55 -44 -106 0 -37 6 -50 32 -76 30 -30 35
-32 90 -28 32 2 58 2 58 -2 0 -3 -25 -48 -55 -99 -31 -52 -53 -97 -49 -100 19
-19 138 199 149 273 9 60 0 92 -35 127 -24 24 -37 29 -77 29 -30 0 -56 -7 -69
-18z m116 -17 c57 -30 61 -122 6 -160 -58 -41 -146 7 -146 80 0 27 8 44 29 66
33 33 67 37 111 14z"/>
<path d="M8107 6296 c-14 -41 -23 -77 -20 -80 3 -3 31 -3 62 1 61 6 100 -7
134 -45 96 -106 -46 -270 -165 -189 -20 14 -39 23 -42 19 -23 -23 47 -62 111
-62 60 0 107 28 134 80 24 45 24 84 -1 135 -26 53 -70 79 -146 85 l-62 5 20
53 19 52 55 0 c30 0 54 5 54 10 0 6 -28 10 -64 10 l-64 0 -25 -74z"/>
<path d="M8999 6341 c-37 -37 -38 -79 -4 -120 l26 -30 -29 -17 c-41 -23 -62
-64 -62 -118 0 -36 6 -52 29 -78 24 -27 36 -32 88 -36 42 -3 69 1 90 11 32 17
63 70 63 106 0 37 -27 88 -59 112 l-30 22 24 29 c34 40 33 82 -4 119 -22 21
-39 29 -66 29 -27 0 -44 -8 -66 -29z m118 -14 c29 -30 15 -90 -26 -112 -25
-12 -31 -12 -58 5 -52 31 -52 99 0 120 25 11 67 4 84 -13z m-2 -170 c68 -38
79 -128 22 -176 -44 -36 -151 -19 -177 28 -29 55 2 130 64 157 41 18 45 17 91
-9z"/> -->
<!-- <path d="M9733 6219 c-51 -86 -93 -159 -93 -163 0 -3 38 -6 85 -6 l85 0 0 -55
c0 -30 5 -55 10 -55 6 0 10 25 10 55 0 48 2 55 20 55 26 0 26 16 0 23 -18 5
-20 15 -22 153 l-3 149 -92 -156z m73 -136 c-6 -15 -126 -19 -126 -3 0 5 28
55 63 112 l62 103 3 -99 c1 -55 0 -106 -2 -113z"/>
<path d="M10087 6296 c-14 -41 -23 -77 -20 -80 3 -3 31 -3 62 1 61 6 100 -7
134 -45 96 -106 -46 -270 -165 -189 -20 14 -39 23 -42 19 -23 -23 47 -62 111
-62 60 0 107 28 134 80 24 45 24 84 -1 135 -26 53 -70 79 -146 85 l-62 5 20
53 19 52 55 0 c30 0 54 5 54 10 0 6 -28 10 -64 10 l-64 0 -25 -74z"/>
<path d="M10534 6352 c-32 -25 -44 -55 -44 -106 0 -37 6 -50 32 -76 30 -30 35
-32 90 -28 32 2 58 2 58 -2 0 -3 -25 -48 -55 -99 -31 -52 -53 -97 -49 -100 19
-19 138 199 149 273 9 60 0 92 -35 127 -24 24 -37 29 -77 29 -30 0 -56 -7 -69
-18z m116 -17 c57 -30 61 -122 6 -160 -58 -41 -146 7 -146 80 0 27 8 44 29 66
33 33 67 37 111 14z"/>
<path d="M13950 6155 c0 -132 4 -215 10 -215 5 0 11 49 12 113 l3 112 34 17
c29 14 39 15 65 4 45 -18 56 -48 56 -153 0 -55 4 -93 10 -93 6 0 10 41 10 104
0 97 -2 107 -25 134 -32 38 -83 49 -125 27 l-30 -16 0 91 c0 53 -4 90 -10 90
-6 0 -10 -78 -10 -215z"/>
<path d="M18560 6155 c0 -137 4 -215 10 -215 6 0 10 78 10 215 0 137 -4 215
-10 215 -6 0 -10 -78 -10 -215z"/>
<path d="M8620 6313 c-67 -106 -94 -174 -98 -245 -4 -66 -3 -69 28 -98 26 -24
41 -30 79 -30 53 0 84 18 106 60 52 100 -51 201 -158 155 -16 -7 -15 0 8 46
15 30 43 78 61 107 25 38 30 52 19 52 -8 0 -29 -21 -45 -47z m93 -224 c45 -93
-71 -173 -144 -100 -38 39 -40 88 -3 124 48 48 116 37 147 -24z"/>
<path d="M10996 6330 c-31 -23 -35 -30 -20 -30 11 0 25 5 32 12 9 9 12 -28 12
-170 l0 -182 -45 0 c-25 0 -45 -4 -45 -10 0 -6 42 -10 105 -10 63 0 105 4 105
10 0 6 -20 10 -45 10 l-45 0 0 200 c0 110 -3 200 -7 200 -5 0 -26 -14 -47 -30z"/>
<path d="M17530 6322 c-15 -12 -24 -33 -27 -67 -3 -28 -11 -54 -17 -58 -8 -6
-7 -10 2 -14 9 -3 12 -38 12 -124 0 -99 3 -119 15 -119 13 0 15 20 15 120 l0
120 25 0 c14 0 25 5 25 10 0 6 -11 10 -26 10 -24 0 -25 2 -22 53 3 49 5 53 36
62 17 5 32 13 32 17 0 15 -48 8 -70 -10z"/>
<path d="M5369 6294 c-17 -21 0 -49 31 -49 31 0 48 28 31 49 -8 9 -21 16 -31
16 -10 0 -23 -7 -31 -16z"/>
<path d="M15050 6255 c0 -52 -1 -55 -25 -55 -14 0 -25 -4 -25 -10 0 -5 11 -10
25 -10 l25 0 0 -120 c0 -100 3 -120 15 -120 13 0 15 20 15 120 l0 120 25 0
c14 0 25 5 25 10 0 6 -11 10 -25 10 -24 0 -25 3 -25 55 0 42 -3 55 -15 55 -12
0 -15 -13 -15 -55z"/>
<path d="M15680 6255 c0 -52 -1 -55 -25 -55 -14 0 -25 -4 -25 -10 0 -5 11 -10
25 -10 l25 0 0 -120 c0 -100 3 -120 15 -120 13 0 15 20 15 120 l0 120 25 0
c14 0 25 5 25 10 0 6 -11 10 -25 10 -24 0 -25 3 -25 55 0 42 -3 55 -15 55 -12
0 -15 -13 -15 -55z"/>
<path d="M14283 6284 c-7 -19 11 -39 26 -30 16 10 13 33 -4 40 -9 3 -18 -1
-22 -10z"/>
<path d="M15233 6284 c-7 -19 11 -39 26 -30 16 10 13 33 -4 40 -9 3 -18 -1
-22 -10z"/>
<path d="M16153 6284 c-8 -21 13 -42 28 -27 13 13 5 43 -11 43 -6 0 -13 -7
-17 -16z"/>
<path d="M17353 6284 c-7 -19 11 -39 26 -30 16 10 13 33 -4 40 -9 3 -18 -1
-22 -10z"/>
<path d="M19613 6284 c-7 -19 11 -39 26 -30 16 10 13 33 -4 40 -9 3 -18 -1
-22 -10z"/>
<path d="M4525 6226 c-66 -28 -105 -106 -90 -176 9 -43 58 -96 102 -111 41
-13 104 -6 139 17 63 42 84 146 44 212 -36 59 -129 87 -195 58z m114 -50 c31
-17 51 -54 51 -97 0 -44 -56 -99 -102 -99 -68 0 -116 65 -97 133 18 67 85 95
148 63z"/>
<path d="M5900 6221 c-77 -40 -105 -145 -60 -219 27 -44 98 -76 152 -69 42 6
108 49 108 72 0 16 -40 31 -49 18 -14 -21 -57 -43 -84 -43 -35 0 -97 57 -97
89 0 20 5 21 125 21 125 0 125 0 125 24 0 34 -40 88 -80 108 -45 23 -96 23
-140 -1z m137 -56 l28 -24 -95 0 -95 0 28 24 c20 18 40 25 67 25 27 0 47 -7
67 -25z"/>
<path d="M5380 6081 l0 -141 25 0 26 0 -3 138 c-3 134 -4 137 -25 140 -23 3
-23 3 -23 -137z"/>
<path d="M13618 6196 c-29 -19 -38 -22 -38 -11 0 8 -4 15 -10 15 -6 0 -10 -67
-10 -180 0 -113 4 -180 10 -180 6 0 10 32 10 77 l0 76 24 -22 c55 -52 148 -47
205 11 55 56 51 145 -9 203 -24 23 -41 29 -87 33 -50 3 -63 0 -95 -22z m153
-19 c95 -64 51 -217 -62 -217 -79 0 -129 49 -129 126 0 29 8 44 39 75 32 32
46 39 78 39 25 0 53 -9 74 -23z"/> -->
<!-- <path d="M14493 6200 c-42 -25 -63 -68 -63 -128 0 -83 56 -132 149 -132 39 0
56 6 80 26 l31 26 0 -26 c0 -14 5 -26 10 -26 6 0 10 50 10 130 0 80 -4 130
-10 130 -5 0 -10 -7 -10 -15 0 -11 -9 -8 -36 10 -46 31 -115 34 -161 5z m141
-19 c104 -69 56 -221 -70 -221 -29 0 -44 8 -75 39 -33 33 -39 45 -39 81 0 36
6 48 39 81 32 32 46 39 77 39 22 0 52 -9 68 -19z"/>
<path d="M15422 6204 c-31 -22 -30 -69 4 -97 89 -74 87 -73 80 -101 -8 -33
-50 -55 -74 -39 -9 5 -22 21 -29 34 -11 21 -13 21 -19 6 -10 -26 32 -67 68
-67 38 0 78 40 78 78 0 30 -11 43 -77 97 -37 30 -41 46 -17 69 20 21 31 20 51
-4 19 -22 33 -26 33 -10 0 16 -39 50 -58 50 -10 0 -28 -7 -40 -16z"/>
<path d="M16363 6201 c-42 -27 -63 -69 -63 -129 0 -83 56 -132 149 -132 39 0
56 6 80 26 42 35 30 49 -16 19 -56 -39 -106 -34 -154 14 -29 28 -39 47 -39 70
l0 31 130 0 c124 0 130 1 130 20 0 11 -15 37 -34 57 -30 33 -39 37 -92 40 -46
3 -66 0 -91 -16z m137 -16 c26 -13 50 -42 50 -59 0 -3 -49 -6 -110 -6 -60 0
-110 3 -110 8 1 12 23 37 50 55 30 21 82 22 120 2z"/>
<path d="M16747 6205 c-15 -8 -34 -12 -42 -8 -13 4 -15 -15 -15 -126 0 -81 4
-131 10 -131 6 0 10 41 10 103 0 97 1 105 25 127 35 33 81 31 112 -4 21 -24
23 -37 23 -127 0 -59 4 -99 10 -99 6 0 10 40 10 100 0 117 -13 152 -61 169
-41 14 -48 14 -82 -4z"/>
<path d="M17077 6205 c-15 -8 -34 -12 -42 -8 -13 4 -15 -15 -15 -126 0 -81 4
-131 10 -131 6 0 10 41 10 103 0 97 1 105 25 127 35 33 81 31 112 -4 21 -24
23 -37 23 -127 0 -59 4 -99 10 -99 6 0 10 40 10 100 0 117 -13 152 -61 169
-41 14 -48 14 -82 -4z"/>
<path d="M17733 6201 c-42 -27 -63 -69 -63 -129 0 -83 56 -132 149 -132 39 0
56 6 80 26 42 35 30 49 -16 19 -56 -39 -106 -34 -154 14 -29 28 -39 47 -39 70
l0 31 130 0 c124 0 130 1 130 20 0 11 -15 37 -34 57 -30 33 -39 37 -92 40 -46
3 -66 0 -91 -16z m137 -16 c26 -13 50 -42 50 -59 0 -3 -49 -6 -110 -6 -60 0
-110 3 -110 8 1 12 23 37 50 55 30 21 82 22 120 2z"/>
<path d="M18763 6200 c-42 -25 -63 -68 -63 -128 0 -83 56 -132 149 -132 39 0
56 6 80 26 l31 26 0 -26 c0 -14 5 -26 10 -26 6 0 10 50 10 130 0 80 -4 130
-10 130 -5 0 -10 -7 -10 -15 0 -11 -9 -8 -36 10 -46 31 -115 34 -161 5z m141
-19 c104 -69 56 -221 -70 -221 -29 0 -44 8 -75 39 -33 33 -39 45 -39 81 0 36
6 48 39 81 32 32 46 39 77 39 22 0 52 -9 68 -19z"/>
<path d="M14290 6070 c0 -80 4 -130 10 -130 6 0 10 50 10 130 0 80 -4 130 -10
130 -6 0 -10 -50 -10 -130z"/>
<path d="M14840 6070 c0 -80 4 -130 10 -130 6 0 10 37 10 91 0 91 0 91 35 126
39 39 41 43 21 43 -8 0 -24 -12 -35 -26 l-21 -27 0 27 c0 14 -4 26 -10 26 -6
0 -10 -50 -10 -130z"/>
<path d="M15240 6070 c0 -80 4 -130 10 -130 6 0 10 50 10 130 0 80 -4 130 -10
130 -6 0 -10 -50 -10 -130z"/>
<path d="M16160 6060 c0 -122 -2 -140 -17 -149 -10 -5 -14 -13 -10 -17 4 -5
16 -3 25 2 15 10 17 32 20 158 2 95 -1 146 -8 146 -6 0 -10 -51 -10 -140z"/>
<path d="M17360 6070 c0 -80 4 -130 10 -130 6 0 10 50 10 130 0 80 -4 130 -10
130 -6 0 -10 -50 -10 -130z"/>
<path d="M18060 6070 c0 -80 4 -130 10 -130 6 0 10 37 10 91 0 91 0 91 35 126
39 39 41 43 21 43 -8 0 -24 -12 -35 -26 l-21 -27 0 27 c0 14 -4 26 -10 26 -6
0 -10 -50 -10 -130z"/>
<path d="M19100 6099 c0 -98 1 -101 29 -130 39 -39 106 -41 148 -5 27 23 28
28 31 130 3 72 0 106 -7 106 -7 0 -11 -32 -11 -91 0 -87 -1 -92 -29 -120 -38
-37 -82 -39 -116 -4 -23 22 -25 32 -25 120 0 57 -4 95 -10 95 -6 0 -10 -40
-10 -101z"/>
<path d="M19430 6070 c0 -80 4 -130 10 -130 6 0 10 37 10 91 0 91 0 91 35 126
39 39 41 43 21 43 -8 0 -24 -12 -35 -26 l-21 -27 0 27 c0 14 -4 26 -10 26 -6
0 -10 -50 -10 -130z"/>
<path d="M19620 6070 c0 -80 4 -130 10 -130 6 0 10 50 10 130 0 80 -4 130 -10
130 -6 0 -10 -50 -10 -130z"/>
<path d="M15820 5920 c0 -6 52 -10 135 -10 83 0 135 4 135 10 0 6 -52 10 -135
10 -83 0 -135 -4 -135 -10z"/>
<path d="M18200 5920 c0 -6 52 -10 135 -10 83 0 135 4 135 10 0 6 -52 10 -135
10 -83 0 -135 -4 -135 -10z"/> -->
</g>
</svg>
