<?xml version="1.0" standalone="no"?>
<!DOCTYPE svg PUBLIC "-//W3C//DTD SVG 20010904//EN"
 "http://www.w3.org/TR/2001/REC-SVG-20010904/DTD/svg10.dtd">
<svg version="1.0" xmlns="http://www.w3.org/2000/svg"
 width="1255.000000pt" height="500.000000pt" viewBox="0 0 1255.000000 500.000000"
 preserveAspectRatio="xMidYMid meet">

<g transform="translate(0.000000,500.000000) scale(0.100000,-0.100000)"
fill="#000000" stroke="none">
<path d="M7099 4743 c-40 -21 -97 -53 -125 -71 -44 -29 -77 -38 -259 -72 -235
-45 -327 -68 -434 -111 -217 -87 -362 -254 -422 -484 -23 -90 -38 -345 -23
-411 8 -37 9 -35 15 36 3 41 7 114 8 162 2 140 43 296 106 404 42 72 141 171
216 216 101 59 243 105 461 149 109 21 205 39 213 39 9 0 -44 -60 -117 -133
-154 -154 -260 -282 -568 -682 -240 -312 -402 -516 -424 -534 -10 -8 -36 -5
-107 14 -263 69 -585 132 -848 167 -138 18 -215 22 -451 22 -342 0 -439 -13
-760 -104 -239 -68 -324 -85 -391 -77 -97 12 -164 65 -260 206 -78 115 -96
131 -141 131 -21 0 -55 -7 -75 -15 -59 -25 -103 -19 -204 29 -112 52 -134 57
-216 45 -80 -11 -135 -39 -283 -143 -145 -102 -223 -135 -337 -143 -46 -3 -86
-10 -89 -14 -2 -4 19 -15 48 -24 153 -45 299 -44 532 4 185 38 237 39 319 5
76 -33 132 -34 250 -5 109 26 148 26 178 2 22 -17 22 -21 9 -46 -27 -50 -139
-152 -208 -188 -96 -51 -178 -70 -302 -70 -187 -1 -352 44 -635 173 -244 111
-350 145 -555 181 -101 18 -480 18 -580 1 -120 -22 -254 -53 -264 -63 -16 -14
20 -10 149 16 184 38 376 51 548 37 255 -21 419 -66 672 -184 466 -218 795
-243 1032 -79 72 50 183 172 183 203 0 10 -15 27 -32 38 -42 26 -110 26 -208
0 -102 -27 -157 -25 -226 5 -79 35 -165 33 -346 -7 -120 -26 -163 -31 -268
-31 -69 1 -138 5 -155 10 -29 10 -28 10 29 22 76 17 174 68 309 164 189 133
271 147 430 73 127 -59 141 -61 220 -35 39 12 76 19 91 15 17 -4 49 -41 104
-119 81 -115 126 -162 185 -194 25 -14 54 -18 142 -17 103 1 123 5 324 63 365
104 379 106 791 106 337 0 364 -2 532 -28 342 -53 828 -162 828 -187 0 -4 -61
-72 -135 -151 -137 -147 -143 -158 -71 -145 25 5 65 39 167 142 l133 136 186
-45 c197 -49 269 -62 393 -73 42 -4 77 -10 77 -15 0 -7 -108 -143 -189 -236
l-43 -50 -116 33 c-259 75 -332 88 -517 88 -134 1 -184 -3 -234 -17 -86 -24
-182 -72 -234 -117 -41 -36 -105 -136 -94 -146 3 -3 23 19 46 49 146 198 412
259 785 182 110 -23 336 -87 336 -96 0 -13 -179 -166 -257 -220 -93 -64 -206
-120 -313 -155 -77 -25 -100 -27 -235 -28 l-150 -1 -68 33 c-70 35 -127 95
-127 134 0 10 -4 18 -10 18 -19 0 -10 -46 16 -86 30 -47 72 -77 145 -106 45
-18 76 -22 179 -22 283 -1 529 102 800 333 52 45 99 80 105 78 72 -27 654
-216 757 -246 373 -109 676 -136 894 -81 44 11 121 41 173 66 135 67 225 158
368 375 60 92 129 206 154 254 44 88 44 88 43 189 -1 84 0 92 6 46 8 -57 27
-116 35 -108 3 2 -2 26 -11 52 -21 62 -14 156 15 215 13 24 18 41 13 38 -4 -4
-17 -24 -26 -46 -11 -23 -24 -37 -31 -35 -19 8 -25 -33 -24 -149 1 -119 -3
-131 -87 -275 -107 -182 -197 -306 -289 -398 -73 -73 -107 -99 -175 -132 -121
-60 -219 -83 -380 -89 -258 -10 -504 42 -1055 224 -192 63 -354 119 -359 123
-4 5 34 55 85 112 51 56 108 124 127 150 l35 46 106 7 c544 32 956 219 1313
593 363 383 527 898 341 1074 -146 138 -447 -16 -883 -452 -287 -286 -527
-584 -853 -1056 -42 -61 -83 -117 -92 -124 -29 -24 -311 18 -538 80 -64 18
-117 35 -117 39 0 3 45 62 101 131 55 69 227 296 382 504 318 430 419 555 540
674 79 78 89 85 155 103 154 41 247 88 247 124 0 16 -8 21 -41 23 -31 2 -57
-6 -115 -35z m131 7 c0 -13 -83 -54 -149 -74 -78 -23 -83 -20 -26 16 83 52
175 83 175 58z m1030 -22 c32 -16 52 -36 70 -68 23 -41 25 -55 25 -165 -1
-112 -3 -127 -37 -227 -84 -244 -216 -446 -429 -655 -190 -187 -392 -318 -629
-406 -186 -69 -428 -117 -594 -117 l-87 0 59 78 c32 42 101 138 154 212 236
335 511 663 783 936 250 250 381 356 511 409 74 31 118 31 174 3z"/>
<path d="M9546 3758 c4 -6 -2 -8 -17 -4 -13 3 -18 3 -11 0 6 -3 12 -10 12 -15
0 -6 -8 -6 -19 1 -23 12 -54 3 -44 -13 3 -6 1 -7 -5 -3 -14 9 -81 -14 -147
-49 -38 -21 -44 -22 -25 -6 14 11 28 21 31 21 4 0 9 7 13 15 3 10 -8 6 -36
-11 -22 -14 -51 -27 -64 -29 -13 -1 -36 -10 -51 -20 l-28 -18 25 28 25 28 -32
-17 c-17 -9 -35 -20 -38 -26 -3 -5 -13 -10 -22 -10 -12 0 -9 9 12 38 26 34 24
33 -25 -13 -30 -27 -48 -41 -41 -30 7 11 -1 4 -19 -15 -18 -19 -30 -30 -26
-24 3 7 -1 15 -10 18 -11 4 -22 -10 -43 -57 -16 -35 -32 -73 -36 -86 -4 -12
-9 -21 -11 -19 -3 4 25 102 42 143 5 14 -1 11 -20 -10 -20 -22 -24 -24 -17 -8
26 53 0 37 -41 -26 -17 -25 -28 -37 -24 -26 5 16 3 15 -14 -5 -11 -14 -20 -19
-20 -12 0 16 27 71 49 97 15 19 15 19 -4 5 -33 -25 -55 -54 -50 -68 3 -7 0
-10 -5 -7 -6 4 -19 -13 -30 -37 -24 -52 -27 -177 -5 -223 13 -30 13 -30 15 25
l2 55 9 -43 c4 -23 10 -46 14 -51 6 -11 45 -2 45 11 0 5 4 7 8 4 5 -3 34 8 66
24 32 17 62 27 68 24 5 -3 15 0 23 6 8 7 22 9 31 6 9 -4 22 -2 29 4 7 6 26 12
43 14 17 3 39 9 51 15 11 6 54 18 95 26 42 8 142 33 223 55 389 110 536 115
826 29 93 -28 317 -129 426 -194 115 -68 142 -76 243 -76 83 1 131 12 438 98
82 23 115 27 235 27 125 0 147 -2 200 -23 33 -13 77 -35 97 -48 41 -25 62 -30
56 -11 -5 15 -121 75 -173 89 -146 40 -269 30 -543 -47 -216 -60 -346 -77
-416 -54 -33 11 -108 66 -230 172 -109 95 -319 244 -401 285 -22 11 -59 24
-83 28 -23 4 -40 11 -37 16 16 25 -263 43 -478 31 -16 -1 -26 -6 -23 -11 3 -4
-7 -8 -22 -7 -15 0 -38 -3 -52 -7 l-25 -8 24 14 c23 14 23 14 2 20 -13 3 -19
1 -15 -5z m-41 -28 c3 -6 -1 -7 -9 -4 -18 7 -21 14 -7 14 6 0 13 -4 16 -10z
m-130 -48 c-18 -15 -85 -54 -85 -48 0 3 19 16 43 30 43 26 59 33 42 18z m-571
-194 c-3 -12 -12 -54 -19 -92 l-13 -71 -1 52 c-1 29 6 71 15 93 17 42 30 55
18 18z"/>
<path d="M8748 3493 c-6 -16 -11 -73 -12 -128 0 -56 -3 -89 -7 -75 -4 15 -7
18 -8 8 -1 -25 17 -68 29 -68 5 0 10 8 10 18 0 13 -2 14 -9 4 -12 -20 -5 208
8 241 6 15 8 27 6 27 -3 0 -11 -12 -17 -27z"/>
<path d="M8713 3380 c0 -36 2 -50 4 -32 2 17 2 47 0 65 -2 17 -4 3 -4 -33z"/>
<path d="M3556 3030 c-9 -16 -25 -54 -35 -83 -79 -230 15 -447 239 -555 128
-61 214 -77 410 -76 277 1 498 53 760 177 154 73 365 213 490 325 l45 40 -55
-10 c-42 -7 -67 -20 -105 -52 -257 -219 -553 -370 -840 -430 -184 -38 -420
-39 -566 -1 -135 35 -273 128 -334 226 -70 110 -71 266 -5 417 24 53 21 64 -4
22z"/>
<path d="M2610 1590 c0 -5 20 -10 45 -10 l45 0 0 -134 c0 -151 8 -235 21 -214
5 7 9 88 9 181 l0 167 45 0 c25 0 45 5 45 10 0 6 -42 10 -105 10 -63 0 -105
-4 -105 -10z"/>
<path d="M2927 1594 c-11 -11 -8 -372 3 -379 5 -3 10 22 12 62 l3 68 35 0 c32
0 38 -6 77 -65 24 -36 48 -67 54 -69 12 -4 2 19 -38 81 -28 46 -29 65 -2 73
28 9 59 63 59 105 0 42 -32 97 -63 109 -33 12 -132 23 -140 15z m146 -48 c48
-44 48 -108 0 -152 -21 -19 -37 -24 -79 -24 l-54 0 0 100 0 100 54 0 c42 0 58
-5 79 -24z"/>
<path d="M3715 1581 c-123 -56 -153 -210 -61 -310 40 -43 83 -61 146 -61 54 0
135 33 125 50 -4 6 -22 1 -45 -10 -111 -56 -242 14 -257 138 -15 128 122 226
242 173 55 -24 55 -24 55 -11 0 17 -82 50 -125 50 -22 0 -58 -9 -80 -19z"/>
<path d="M4150 1584 c-193 -84 -139 -374 69 -374 58 0 121 24 129 48 3 9 -9 7
-37 -7 -72 -37 -158 -23 -213 35 -73 78 -62 192 25 255 55 40 112 46 172 20
55 -24 55 -24 55 -11 0 18 -82 50 -125 49 -22 0 -56 -7 -75 -15z"/>
<path d="M4570 1585 c-80 -36 -120 -97 -120 -181 0 -74 33 -133 96 -170 39
-23 53 -26 109 -22 53 3 71 9 102 34 21 17 48 50 61 75 44 83 13 191 -68 245
-49 32 -131 41 -180 19z m164 -35 c115 -79 107 -238 -15 -300 -53 -28 -113
-26 -165 5 -58 34 -84 79 -84 144 0 59 15 94 57 132 57 53 145 61 207 19z"/>
<path d="M5198 1584 c-15 -8 -31 -26 -34 -41 -12 -45 7 -74 76 -116 78 -48 89
-61 90 -108 0 -80 -97 -120 -154 -63 -14 15 -26 31 -26 35 0 5 -4 9 -10 9 -19
0 -10 -22 24 -56 73 -73 186 -25 186 79 0 46 -34 86 -105 126 -59 33 -75 63
-56 100 18 32 57 37 92 12 23 -17 29 -18 29 -7 0 16 -49 46 -72 46 -7 -1 -25
-7 -40 -16z"/>
<path d="M5460 1405 l0 -195 95 0 c57 0 95 4 95 10 0 6 -35 10 -85 10 l-85 0
0 80 0 80 63 0 c34 0 72 3 84 6 45 12 10 24 -68 24 l-79 0 0 80 0 80 85 0 c50
0 85 4 85 10 0 6 -38 10 -95 10 l-95 0 0 -195z"/>
<path d="M6083 1593 c-7 -3 -42 -43 -79 -90 -36 -46 -70 -81 -74 -76 -4 4 -35
43 -69 86 -34 42 -68 77 -76 77 -13 0 -15 -29 -15 -191 0 -124 3 -188 10 -184
6 4 10 75 10 182 l0 175 70 -91 c39 -50 74 -91 78 -91 4 0 39 41 77 92 l70 91
3 -182 c1 -115 6 -180 12 -176 12 7 14 372 3 378 -5 2 -14 2 -20 0z"/>
<path d="M6370 1406 c0 -124 4 -196 10 -196 6 0 10 30 10 70 l0 70 56 0 c50 0
60 4 89 33 43 43 54 95 29 138 -28 48 -62 67 -131 75 l-63 7 0 -197z m152 135
c27 -24 33 -36 33 -71 0 -35 -6 -47 -33 -71 -26 -24 -41 -29 -82 -29 l-50 0 0
100 0 100 50 0 c41 0 56 -5 82 -29z"/>
<path d="M6690 1405 l0 -195 95 0 c57 0 95 4 95 10 0 6 -35 10 -85 10 l-85 0
0 80 0 80 63 0 c34 0 72 3 84 6 45 12 10 24 -68 24 l-79 0 0 80 0 80 85 0 c50
0 85 4 85 10 0 6 -38 10 -95 10 l-95 0 0 -195z"/>
<path d="M7000 1405 c0 -128 3 -194 10 -190 6 3 10 35 10 71 l0 64 34 0 c31 0
38 -6 75 -64 64 -102 87 -104 26 -3 l-35 58 40 38 c36 34 40 43 40 88 0 36 -6
58 -21 77 -28 36 -44 43 -116 51 l-63 7 0 -197z m143 145 c38 -30 52 -81 33
-119 -23 -44 -54 -61 -108 -61 l-48 0 0 100 0 100 49 0 c33 0 56 -6 74 -20z"/>
<path d="M7613 1582 c-10 -9 -43 -50 -73 -90 -30 -39 -57 -72 -60 -72 -3 1
-34 39 -69 85 -97 130 -101 126 -101 -99 0 -110 4 -187 10 -191 6 -4 11 61 12
176 l3 182 69 -91 c39 -51 73 -92 77 -92 4 0 40 41 78 91 l71 92 0 -176 c0
-106 4 -178 10 -182 7 -4 10 62 10 189 0 124 -4 196 -10 196 -5 0 -18 -8 -27
-18z"/>
<path d="M8130 1405 c0 -120 4 -195 10 -195 6 0 11 69 12 173 l3 172 50 -69
c141 -195 202 -271 218 -274 16 -3 17 11 17 187 0 121 -4 191 -10 191 -6 0
-11 -40 -11 -97 -1 -54 -4 -130 -8 -170 l-6 -71 -118 164 c-65 90 -127 169
-138 174 -18 10 -19 5 -19 -185z"/>
<path d="M8550 1405 l0 -195 94 0 c53 0 98 4 101 10 4 6 -27 10 -84 10 l-91 0
0 80 0 80 59 0 c32 0 73 3 91 6 52 11 13 24 -72 24 l-78 0 0 80 0 80 85 0 c50
0 85 4 85 10 0 6 -38 10 -95 10 l-95 0 0 -195z"/>
<path d="M8870 1403 c0 -128 3 -194 10 -187 5 5 11 84 12 174 l3 165 107 -150
c157 -221 170 -231 176 -134 6 87 -9 323 -19 308 -5 -8 -9 -86 -9 -174 -1
-153 -1 -159 -18 -139 -9 12 -66 89 -125 172 -60 83 -115 153 -123 156 -12 4
-14 -27 -14 -191z"/>
<path d="M9270 1590 c0 -5 20 -10 45 -10 l45 0 0 -127 c0 -149 9 -241 21 -221
5 7 9 88 9 181 l0 167 45 0 c25 0 45 5 45 10 0 6 -42 10 -105 10 -63 0 -105
-4 -105 -10z"/>
<path d="M9580 1405 l0 -195 94 0 c53 0 98 4 101 10 4 6 -27 10 -84 10 l-91 0
0 80 0 80 59 0 c32 0 73 3 91 6 52 11 13 24 -72 24 l-78 0 0 80 0 80 85 0 c50
0 85 4 85 10 0 6 -38 10 -95 10 l-95 0 0 -195z"/>
<path d="M3242 1434 l3 -156 37 -34 c30 -27 46 -34 77 -34 99 0 126 38 136
186 8 112 -1 215 -16 179 -4 -11 -8 -80 -8 -153 l-1 -134 -29 -29 c-41 -41
-98 -41 -143 0 l-33 29 -3 151 c-3 90 -8 151 -14 151 -6 0 -9 -58 -6 -156z"/>
<path d="M6220 1406 c0 -113 4 -187 10 -191 7 -4 10 60 10 184 0 121 -4 191
-10 191 -6 0 -10 -68 -10 -184z"/>
<path d="M7871 1571 c-15 -26 -131 -343 -131 -355 0 -26 30 26 53 89 l25 70
69 3 70 3 12 -41 c18 -62 53 -136 57 -124 4 9 -22 84 -118 347 -12 32 -23 34
-37 8z m48 -94 c11 -32 21 -62 21 -67 0 -6 -25 -10 -55 -10 -30 0 -55 2 -55 4
0 20 54 145 60 139 4 -4 17 -34 29 -66z"/>
<path d="M7155 764 c-41 -21 -66 -46 -148 -146 -38 -49 -77 -88 -86 -89 -79
-5 -140 15 -155 53 -11 25 -14 27 -25 14 -26 -31 17 -73 85 -82 92 -12 89 -9
48 -59 -24 -30 -58 -56 -101 -76 -65 -31 -84 -52 -65 -71 7 -7 19 -4 38 11 15
12 58 31 96 42 59 18 88 21 186 17 107 -3 113 -3 67 8 -27 7 -93 13 -145 13
l-95 2 63 59 c36 33 91 72 127 89 132 61 227 188 166 221 -24 12 -20 13 -56
-6z m55 -17 c0 -24 -56 -103 -96 -134 -41 -32 -103 -67 -109 -61 -5 4 130 168
157 191 24 20 48 22 48 4z"/>
<path d="M5387 738 c-66 -36 -150 -120 -145 -146 2 -11 14 -18 33 -19 17 -1
22 1 13 3 -16 5 -16 8 -4 33 22 41 101 110 159 137 40 18 46 24 27 24 -14 0
-51 -15 -83 -32z"/>
<path d="M5548 742 c3 -22 -9 -47 -50 -108 -30 -43 -63 -84 -73 -89 -11 -6
-21 -17 -23 -25 -13 -57 -233 -204 -296 -198 -27 3 -31 6 -29 32 4 48 65 103
162 142 31 13 49 24 40 24 -9 0 -48 -16 -87 -35 -83 -42 -142 -102 -142 -145
0 -76 111 -62 250 33 46 32 184 157 173 157 -4 0 3 10 14 23 59 65 101 163 83
197 -15 29 -27 25 -22 -8z"/>
<path d="M4762 695 c-83 -93 -168 -246 -153 -272 7 -14 11 -12 24 14 24 46
129 134 143 120 10 -9 -80 -110 -109 -122 l-32 -14 33 -1 c43 0 87 31 123 87
48 77 8 99 -70 38 -24 -19 -46 -35 -48 -35 -9 0 98 147 127 175 35 33 38 45
11 45 -10 0 -33 -16 -49 -35z"/>
<path d="M6318 703 c-14 -16 -57 -71 -95 -124 -64 -86 -127 -149 -139 -137 -2
3 14 31 37 63 60 86 35 88 -49 3 -39 -40 -74 -69 -78 -65 -4 4 9 31 29 60 39
56 45 77 24 77 -14 0 -57 -29 -44 -30 4 0 -6 -24 -23 -53 -16 -30 -30 -59 -30
-65 0 -15 46 -16 55 -2 3 5 15 15 26 21 17 9 20 7 17 -7 -5 -31 31 -28 73 5
l39 32 -61 -124 c-56 -114 -66 -157 -38 -157 36 0 149 152 149 199 0 9 -9 -4
-20 -28 -24 -51 -74 -117 -102 -132 -15 -8 -5 19 41 108 45 88 68 123 91 137
38 22 45 17 29 -17 -16 -36 3 -59 40 -50 29 7 96 47 106 63 4 6 -15 -3 -41
-20 -53 -33 -74 -38 -74 -15 0 8 23 26 51 41 28 14 63 37 77 51 24 24 25 26 8
39 -22 16 -46 8 -128 -43 -32 -20 -61 -33 -64 -30 -6 6 65 109 133 195 24 29
24 32 6 32 -11 0 -31 -12 -45 -27z m55 -173 c-23 -22 -48 -40 -55 -40 -7 1 7
19 31 40 57 52 79 52 24 0z"/>
<path d="M6167 633 c-4 -3 -7 -15 -7 -25 0 -17 1 -18 25 -2 14 9 22 20 19 25
-6 11 -28 12 -37 2z"/>
<path d="M7800 625 c-19 -23 -1 -39 21 -19 10 9 19 21 19 26 0 13 -27 9 -40
-7z"/>
<path d="M4920 519 c-41 -38 -78 -69 -82 -69 -16 0 -7 20 27 64 39 51 44 69
18 64 -23 -4 -93 -106 -93 -135 0 -33 24 -29 75 13 l44 36 -49 -82 c-59 -98
-85 -163 -75 -187 6 -16 8 -16 23 5 10 13 37 49 61 80 l44 57 -43 -40 -42 -40
17 35 c27 53 114 181 147 216 23 24 26 33 16 41 -10 8 -31 -6 -88 -58z"/>
<path d="M5588 562 c-104 -55 -140 -179 -41 -141 39 14 95 50 89 56 -3 3 -18
-4 -34 -16 -34 -24 -65 -31 -72 -16 -3 5 16 21 42 35 54 29 98 68 98 86 0 24
-31 23 -82 -4z m28 -38 c-40 -34 -56 -42 -56 -25 0 13 82 72 89 65 3 -3 -12
-21 -33 -40z"/>
<path d="M5901 540 c-44 -52 -108 -106 -116 -98 -3 3 13 31 34 63 62 92 35
103 -58 25 -66 -55 -77 -55 -31 0 33 37 37 50 17 50 -16 0 -110 -94 -101 -102
3 -4 0 -16 -6 -28 -26 -49 9 -37 72 25 76 74 100 83 63 25 -47 -74 -24 -104
42 -54 l34 26 -6 -25 c-10 -38 11 -41 37 -6 13 17 22 35 21 39 -1 4 13 25 32
48 28 32 32 42 21 51 -10 8 -22 0 -55 -39z"/>
<path d="M7425 513 c-85 -81 -109 -83 -51 -4 35 48 44 71 28 71 -5 0 -41 -32
-80 -72 -76 -75 -103 -85 -58 -20 48 70 26 70 -64 2 -74 -57 -90 -62 -61 -21
31 44 88 90 119 97 47 10 48 12 9 13 -22 1 -54 -6 -73 -15 -71 -34 -137 -144
-86 -144 10 0 37 14 60 31 l42 31 -6 -31 c-6 -27 -4 -31 14 -31 11 0 34 11 50
25 34 29 44 31 36 10 -4 -8 -3 -22 0 -30 7 -20 36 -7 84 39 l33 31 -6 -27
c-11 -43 0 -61 27 -47 13 6 33 21 45 32 l22 20 -2 -28 c-3 -35 16 -43 32 -13
27 51 39 69 44 66 3 -2 13 4 23 13 36 30 47 34 35 10 -7 -12 -9 -26 -6 -31 8
-13 36 -12 55 1 13 9 12 10 -2 5 -25 -8 -22 7 7 42 24 29 24 42 -1 42 -7 0
-33 -16 -58 -35 -49 -37 -60 -36 -25 2 19 20 20 23 6 29 -11 4 -37 -16 -84
-65 -98 -102 -121 -95 -39 12 26 34 32 48 23 55 -9 7 -35 -12 -92 -65z"/>
<path d="M6452 542 c-45 -56 -68 -110 -55 -123 9 -9 19 1 41 37 17 27 42 63
56 80 14 17 23 34 19 38 -14 14 -33 4 -61 -32z"/>
<path d="M6532 550 c-46 -33 -58 -51 -16 -23 27 17 27 17 15 -5 -7 -12 -9 -27
-6 -32 8 -13 42 -13 50 0 4 6 -1 7 -11 3 -14 -5 -15 -3 -6 14 6 11 18 25 26
33 20 15 21 40 3 40 -8 0 -33 -14 -55 -30z"/>
<path d="M7730 535 c-19 -19 -31 -35 -27 -35 4 0 1 -13 -8 -30 -8 -16 -15 -34
-15 -40 0 -22 47 -7 85 27 38 34 27 32 -22 -3 -34 -24 -28 -6 16 53 22 28 37
54 34 57 -13 13 -30 5 -63 -29z"/>
<path d="M5946 515 c-22 -19 -35 -35 -30 -35 5 1 27 16 48 35 22 19 35 35 30
35 -5 -1 -27 -16 -48 -35z"/>
<path d="M5308 523 c7 -3 16 -2 19 1 4 3 -2 6 -13 5 -11 0 -14 -3 -6 -6z"/>
</g>
</svg>
